<svg width="270" height="300" viewBox="0 0 270 300" fill="none" xmlns="http://www.w3.org/2000/svg">
<path d="M269.901 80.7691L219.937 51.9233L149.99 92.3089L199.954 121.155L269.901 80.7691Z" fill="#3E59A3"/>
<path d="M199.954 236.537L269.901 196.151V80.7683L199.954 121.154V236.537Z" fill="#273C75"/>
<path d="M199.954 236.538L149.992 207.692L149.99 92.3091L199.954 121.155V236.538Z" fill="#142659"/>
<path d="M173.186 122.081L179.963 125.995V109.614L173.186 105.702V122.081Z" fill="#9D7A1A"/>
<path d="M179.964 109.616L249.911 69.2303L243.129 65.3188L173.186 105.702L179.964 109.616Z" fill="#E1B12C"/>
<path d="M179.965 178.845L90.0332 126.922L0.0986328 178.845L90.0332 230.768L179.965 178.845Z" fill="#3E59A3"/>
<path d="M90.0322 300L179.967 248.078V178.846L90.0322 230.769V300Z" fill="#273C75"/>
<path d="M90.0332 300L0.0986328 248.078V178.846L90.0332 230.769V300Z" fill="#142659"/>
<path d="M41.6776 219.23L48.4548 223.144V206.763L41.6776 202.849V219.23Z" fill="#9D7A1A"/>
<path d="M48.4548 206.765L138.389 154.843L131.61 150.926L41.6776 202.849L48.4548 206.765Z" fill="#E1B12C"/>
<path d="M12.6909 224.999L13.5052 225.469V240.169L12.6909 239.7V224.999Z" fill="#142659"/>
<path d="M16.0126 226.914L17.4172 227.741V242.444L16.0126 241.617V226.914Z" fill="#142659"/>
<path d="M19.3266 228.831L20.1433 229.301L20.1408 244.004L19.3266 243.532V228.831Z" fill="#142659"/>
<path d="M21.8291 230.246L23.4625 231.215L23.4601 245.916L21.8291 244.949V230.246Z" fill="#142659"/>
<path d="M25.966 232.66L26.7827 233.13V247.83L25.966 247.361V232.66Z" fill="#142659"/>
<path d="M28.3552 234.008L30.0993 235.046V249.747L28.3552 248.711V234.008Z" fill="#142659"/>
<path d="M32.6042 236.489L33.4185 236.959V251.662L32.6017 251.19L32.6042 236.489Z" fill="#142659"/>
<path d="M34.4952 237.568L34.9036 237.805V252.505L34.4952 252.269V237.568Z" fill="#142659"/>
<path d="M31.0887 235.687L31.497 235.923V250.624L31.0887 250.39V235.687Z" fill="#142659"/>
<path d="M24.4055 231.772L24.8139 232.008L24.8114 246.711L24.4055 246.475V231.772Z" fill="#142659"/>
<path d="M20.7433 229.672L21.1492 229.908V244.611L20.7433 244.375V229.672Z" fill="#142659"/>
<path d="M18.116 228.221L18.5219 228.457V243.158L18.116 242.925V228.221Z" fill="#142659"/>
<path d="M14.5466 226.053L14.9549 226.29V240.99L14.5466 240.757V226.053Z" fill="#142659"/>
<path d="M35.9214 238.405L36.7357 238.877V253.578L35.9214 253.108V238.405Z" fill="#142659"/>
<path d="M159.979 40.3851L90.0323 -0.000488281L20.0851 40.3826L90.0323 80.7682L159.979 40.3851Z" fill="#3E59A3"/>
<path d="M90.0322 219.229L159.982 178.846V40.3831L90.0322 80.7686V219.229Z" fill="#273C75"/>
<path d="M90.0323 219.231L20.0851 178.846V40.3831L90.0323 80.7686V219.231Z" fill="#142659"/>
<path d="M53.2766 75.9223L60.0563 79.8361V63.4551L53.2766 59.5437V75.9223Z" fill="#9D7A1A"/>
<path d="M60.0563 63.4573L130.003 23.0718L123.221 19.1604L53.2766 59.5435L60.0563 63.4573Z" fill="#E1B12C"/>
</svg>
