<svg width="398" height="300" viewBox="0 0 398 300" fill="none" xmlns="http://www.w3.org/2000/svg">
<path d="M315.265 152.657C307.943 148.467 301.004 144.442 293.945 140.49C291.863 139.324 289.092 138.655 286.902 139.574C285.196 140.291 284.314 141.6 282.976 142.602C281.305 143.852 280.02 145.508 277.723 146.196C276.315 146.619 274.794 146.8 273.25 146.78L273.246 130.208L273.234 130.208C273.22 129.402 272.603 128.517 271.27 127.623C266.084 124.144 260.267 120.962 254.474 117.506C248.216 121.13 242.389 124.503 236.215 128.078V144.966C239.162 145.733 241.784 146.605 244 147.611C242.473 148.125 240.784 148.481 238.985 148.63C227.96 149.548 220.635 146.06 215.643 139.893C210.763 142.713 206.276 145.307 201.592 148.014V164.902C202.44 165.453 203.143 165.968 203.948 166.422C205.157 167.103 206.377 167.78 207.597 168.455C207.48 168.806 207.419 169.167 207.418 169.537L207.409 169.551L207.416 186.428H207.423C207.422 187.533 207.936 188.702 209.042 189.832C212.486 193.349 219.903 195.182 224.739 193.344C227.086 192.452 228.678 190.772 229.89 189.217C232.325 186.094 237.077 185.594 242.055 188.199C242.919 188.651 243.708 189.151 244.536 189.627C250.49 193.05 256.444 196.472 262.615 200.02C267.082 197.451 271.119 195.102 275.209 192.784C280.866 189.578 285.966 190.451 289.646 195.233C291.689 197.888 295.665 199.664 300.006 199.862C304.7 200.075 309.227 198.299 310.566 195.718C310.835 195.203 310.96 194.661 310.964 194.112L310.972 194.114V177.153L310.954 177.149C310.935 175.836 310.198 174.483 308.78 173.32C310.903 172.086 313.052 170.835 315.266 169.548V152.657H315.265Z" fill="#E1B12C"/>
<path d="M262.616 183.126V200.019C256.447 196.471 250.491 193.049 244.536 189.628C243.704 189.153 242.92 188.646 242.056 188.194C240.116 187.18 238.207 186.642 236.465 186.547V169.646C238.208 169.75 240.116 170.296 242.056 171.309C242.92 171.761 243.704 172.26 244.536 172.735C250.492 176.157 256.447 179.586 262.616 183.126Z" fill="#E1B12C"/>
<path d="M244.761 172.345C244.483 172.186 244.21 172.023 243.937 171.86C243.39 171.536 242.845 171.211 242.265 170.909C240.104 169.778 237.894 169.181 235.87 169.181C233.225 169.181 230.975 170.2 229.532 172.051C228.45 173.44 226.908 175.147 224.577 176.033C223.363 176.494 221.952 176.729 220.383 176.729C216.26 176.729 211.73 175.043 209.365 172.628C208.094 171.329 207.615 169.976 207.98 168.716C208.456 167.069 210.331 165.745 213.125 165.081C218.614 163.778 220.844 162.65 221.077 161.055C221.302 159.521 219.559 157.835 215.061 155.235C212.889 153.981 210.638 152.734 208.459 151.528C207.025 150.734 205.591 149.941 204.17 149.14C203.642 148.842 203.153 148.513 202.636 148.165C202.575 148.124 202.513 148.083 202.452 148.041L215.538 140.479C220.441 146.367 227.005 149.23 235.592 149.23C236.697 149.23 237.852 149.18 239.023 149.082C246.278 148.479 251.789 144.727 252.13 140.161C252.535 134.718 247.845 130.816 237.387 127.925L254.471 118.033C256.148 119.031 257.825 120.007 259.488 120.974C263.563 123.343 267.411 125.582 271.019 128.001C272.314 128.869 272.933 129.752 272.765 130.484C272.516 131.564 270.607 132.48 267.784 132.873C263.856 133.421 260.824 135.237 259.874 137.613C259.303 139.041 259.561 140.548 260.602 141.859C263.157 145.078 268.329 147.241 273.472 147.241C275.034 147.241 276.508 147.036 277.855 146.633C279.588 146.113 280.765 145.083 281.903 144.086C282.357 143.689 282.786 143.314 283.25 142.967C283.738 142.601 284.167 142.198 284.581 141.808C285.335 141.098 286.046 140.429 287.08 139.995C287.705 139.732 288.413 139.599 289.186 139.599C290.629 139.599 292.241 140.056 293.726 140.887C298.789 143.722 303.71 146.548 308.918 149.539C310.714 150.571 312.525 151.612 314.361 152.662L303.264 159.117C302.629 159.487 301.982 159.851 301.336 160.214C299.909 161.02 298.433 161.853 297.089 162.736C295.107 164.041 294.841 165.346 294.966 166.212C295.217 167.947 297.218 169.465 300.6 170.488C301.159 170.658 301.734 170.816 302.311 170.975C303.672 171.349 305.079 171.736 306.229 172.272C308.372 173.27 309.831 174.638 310.335 176.121C310.628 176.98 310.569 177.844 310.166 178.622C308.988 180.892 305.038 182.539 300.772 182.539C300.525 182.539 300.277 182.534 300.029 182.522C295.813 182.331 291.973 180.624 290.008 178.07C287.729 175.109 284.829 173.543 281.62 173.543C279.514 173.543 277.281 174.203 274.988 175.503C272.184 177.091 269.406 178.694 266.497 180.373L262.618 182.61L244.761 172.345Z" fill="#FFD666"/>
<path d="M254.467 118.557C256.074 119.512 257.694 120.454 259.263 121.366C263.33 123.731 267.171 125.965 270.765 128.375C271.859 129.11 272.442 129.86 272.323 130.38C272.157 131.1 270.67 132.011 267.72 132.422C263.632 132.992 260.463 134.916 259.452 137.443C258.817 139.028 259.099 140.695 260.245 142.138C262.881 145.46 268.197 147.692 273.471 147.692C275.075 147.692 276.593 147.48 277.982 147.064C279.811 146.515 281.026 145.452 282.2 144.423C282.646 144.033 283.068 143.663 283.518 143.327C284.027 142.945 284.465 142.533 284.889 142.134C285.612 141.454 286.294 140.811 287.253 140.409C287.821 140.17 288.471 140.049 289.183 140.049C290.531 140.049 292.105 140.498 293.501 141.28C298.587 144.128 303.531 146.967 308.765 149.973C310.314 150.863 311.874 151.759 313.451 152.663L303.032 158.723C302.397 159.092 301.752 159.456 301.107 159.819C299.674 160.628 298.191 161.464 296.836 162.356C294.654 163.79 294.369 165.279 294.513 166.275C294.791 168.193 296.904 169.842 300.463 170.92C301.026 171.09 301.604 171.249 302.183 171.408C303.527 171.778 304.916 172.159 306.033 172.68C308.035 173.613 309.445 174.919 309.903 176.264C310.158 177.014 310.11 177.736 309.76 178.41C308.673 180.503 304.808 182.082 300.769 182.082C300.528 182.082 300.287 182.077 300.045 182.066C295.958 181.88 292.249 180.242 290.363 177.79C287.995 174.713 284.971 173.087 281.617 173.087C279.43 173.087 277.124 173.767 274.761 175.106C271.957 176.695 269.196 178.288 266.272 179.976C265.078 180.664 263.863 181.366 262.614 182.085L258.285 179.598L244.986 171.954C244.71 171.795 244.44 171.634 244.169 171.473C243.628 171.152 243.068 170.819 242.474 170.508C240.249 169.344 237.965 168.729 235.869 168.729C233.082 168.729 230.704 169.81 229.174 171.773C228.128 173.115 226.642 174.764 224.416 175.61C223.253 176.052 221.896 176.276 220.382 176.276C216.371 176.276 211.973 174.646 209.687 172.311C208.885 171.491 208.013 170.225 208.413 168.842C208.843 167.357 210.598 166.146 213.228 165.522C219.007 164.151 221.255 162.957 221.524 161.121C221.784 159.347 220.035 157.588 215.286 154.843C213.111 153.586 210.856 152.338 208.676 151.131C207.243 150.338 205.811 149.546 204.391 148.745C204.021 148.537 203.667 148.31 203.306 148.07L215.434 141.061C220.401 146.862 227.004 149.683 235.589 149.683C236.707 149.683 237.875 149.633 239.058 149.535C246.536 148.912 252.222 144.985 252.579 140.196C253.1 133.201 245.357 129.761 238.541 127.78L245.192 123.929L254.467 118.557ZM254.473 117.506C248.215 121.13 242.388 124.503 236.214 128.078C245.885 130.598 252.117 134.214 251.677 140.127C251.359 144.394 245.984 148.048 238.985 148.63C237.812 148.728 236.682 148.775 235.591 148.775C226.429 148.775 220.104 145.404 215.643 139.893C210.763 142.713 206.276 145.307 201.592 148.014C202.44 148.564 203.143 149.08 203.948 149.534C207.564 151.573 211.263 153.562 214.835 155.627C223.058 160.379 222.637 162.358 213.021 164.64C207.548 165.939 205.785 169.618 209.042 172.944C211.556 175.512 216.186 177.181 220.384 177.181C221.937 177.181 223.432 176.952 224.739 176.456C227.086 175.565 228.678 173.885 229.89 172.33C231.269 170.562 233.388 169.635 235.871 169.635C237.776 169.635 239.894 170.18 242.055 171.311C242.919 171.763 243.708 172.263 244.536 172.739C250.489 176.162 256.444 179.584 262.615 183.132C267.082 180.563 271.119 178.214 275.209 175.896C277.45 174.626 279.604 173.995 281.618 173.995C284.685 173.995 287.424 175.458 289.646 178.345C291.689 181 295.665 182.776 300.006 182.973C300.262 182.985 300.516 182.99 300.771 182.99C305.184 182.99 309.3 181.27 310.566 178.829C311.78 176.491 310.233 173.638 306.418 171.86C304.749 171.083 302.647 170.634 300.728 170.054C295.246 168.395 293.759 165.468 297.336 163.115C299.262 161.847 301.43 160.707 303.488 159.509C307.343 157.267 311.197 155.024 315.265 152.659C307.942 148.469 301.004 144.444 293.944 140.491C292.54 139.706 290.823 139.146 289.183 139.146C288.39 139.146 287.615 139.277 286.901 139.576C285.195 140.293 284.314 141.601 282.975 142.604C281.304 143.855 280.019 145.51 277.722 146.198C276.381 146.601 274.938 146.787 273.471 146.787C268.588 146.787 263.444 144.713 260.954 141.576C258.279 138.206 261.635 134.186 267.845 133.321C273.229 132.571 274.995 130.122 271.27 127.624C266.083 124.145 260.267 120.962 254.473 117.506Z" fill="#E1B12C"/>
<path d="M297.359 182.643V199.536C294.096 198.879 291.261 197.334 289.645 195.227C287.483 192.423 284.83 190.975 281.869 190.895V174.002C284.83 174.074 287.483 175.531 289.645 178.343C291.262 180.442 294.097 182.002 297.359 182.643Z" fill="#E1B12C"/>
<path d="M213.023 164.642C210.038 165.347 208.153 166.764 207.591 168.443C206.371 167.778 205.16 167.105 203.948 166.423C203.14 165.964 202.443 165.449 201.588 164.903V148.01C202.443 148.565 203.14 149.08 203.948 149.531C207.568 151.574 211.266 153.562 214.838 155.629C223.058 160.381 222.639 162.361 213.023 164.642Z" fill="#E1B12C"/>
<path d="M251.68 140.131C251.442 143.299 248.409 146.134 243.997 147.615C241.78 146.609 239.159 145.738 236.213 144.969V128.077C245.882 130.595 252.115 134.214 251.68 140.131Z" fill="#E1B12C"/>
<path d="M273.244 130.231L273.252 146.783C268.437 146.727 263.401 144.669 260.953 141.571C258.276 138.206 261.634 134.183 267.843 133.319C271.28 132.836 273.244 131.664 273.244 130.231Z" fill="#E1B12C"/>
<path d="M185.942 144.236C186.121 143.827 186.189 143.402 186.171 142.966L186.184 142.961V126.405C186.188 126.337 186.184 126.266 186.184 126.196V126.195C186.18 125.17 185.634 124.081 184.567 122.976C181.999 120.314 178.235 118.564 173.075 118.507C168.427 118.457 165.468 119.794 164.036 122.262C161.297 126.978 156.729 127.342 149.893 123.438C143.638 119.865 137.402 116.282 130.851 112.527C126.44 115.082 122.204 117.57 117.905 120.019C112.939 122.849 107.411 121.925 104.205 117.758C101.615 114.393 97.1159 112.508 92.0913 112.681C87.1157 112.853 82.9121 115.193 82.5306 118.001C82.5125 118.131 82.5106 118.261 82.507 118.391L82.4989 118.39V118.527C82.4989 118.537 82.4989 118.547 82.4989 118.557L82.498 135.402H82.5025C82.5152 136.763 83.3062 138.058 84.7561 139.193C82.5859 140.441 80.4147 141.687 78.2128 142.959V159.847C84.7053 163.597 90.9541 167.179 97.1467 170.793C103.453 174.474 107.966 174.137 110.535 169.754C112.12 167.05 115.751 165.526 120.407 165.771C120.457 165.774 120.506 165.779 120.555 165.784V182.014C120.532 182.362 120.616 182.746 120.809 183.176C121.362 184.408 123.214 185.655 124.879 186.684C129.453 189.511 134.237 192.228 139.076 195.068C145.292 191.485 151.253 188.049 157.27 184.58V167.692C154.515 166.595 152.2 165.611 150.266 164.695C151.748 164.254 153.372 163.951 155.099 163.825C166.04 163.022 172.86 166.748 177.838 172.578C182.697 169.78 187.255 167.156 191.866 164.5V147.612C189.871 146.468 187.899 145.349 185.942 144.236Z" fill="#E1B12C"/>
<path d="M139.076 178.183L157.27 167.695V184.583L139.076 195.071V178.183Z" fill="#E1B12C"/>
<path d="M126.811 162.076C121.64 163.058 119.818 164.072 120.808 166.289L120.554 166.614V165.79C120.507 165.782 120.459 165.774 120.404 165.774C115.747 165.529 112.12 167.049 110.536 169.758C109.245 171.96 107.463 173.14 105.214 173.298V156.413C107.463 156.246 109.245 155.067 110.536 152.866C112.12 150.165 115.747 148.645 120.404 148.882C125.647 149.159 129.622 150.847 132.125 153.619C135.388 157.229 132.957 160.919 126.811 162.076Z" fill="#E1B12C"/>
<path d="M139.078 177.659C137.776 176.896 136.478 176.142 135.188 175.39C131.689 173.355 128.384 171.433 125.118 169.413C123.467 168.394 121.715 167.203 121.223 166.106C120.884 165.351 121.004 164.96 121.123 164.731C121.577 163.862 123.304 163.202 126.897 162.522C130.588 161.825 133.115 160.206 133.831 158.079C134.194 156.998 134.252 155.293 132.462 153.312C129.824 150.394 125.663 148.706 120.43 148.432C120.096 148.415 119.767 148.405 119.444 148.405C115.11 148.405 111.72 149.949 110.144 152.638C108.826 154.887 107.031 155.98 104.658 155.981C102.626 155.981 100.176 155.152 97.3741 153.516C93.1035 151.023 88.8056 148.546 84.419 146.018L79.119 142.96C80.6449 142.081 82.1627 141.208 83.6732 140.34C87.6566 138.049 91.5884 135.789 95.4803 133.506C98.215 131.902 98.6337 130.402 98.5041 129.426C98.2585 127.58 95.9334 126.006 91.7796 124.874L91.0819 124.69C85.7238 123.254 82.6194 120.715 82.9791 118.062C83.3253 115.507 87.4201 113.296 92.1058 113.134C92.3142 113.127 92.5217 113.123 92.7283 113.123C97.3923 113.123 101.445 114.913 103.846 118.033C105.863 120.656 108.777 122.099 112.052 122.099C114.09 122.099 116.191 121.516 118.129 120.411C121.108 118.714 124.056 116.998 127.053 115.256L130.853 113.049L136.508 116.292C140.962 118.846 145.31 121.341 149.669 123.83C152.885 125.668 155.565 126.56 157.862 126.56C160.649 126.56 162.858 125.19 164.428 122.488C165.788 120.146 168.612 118.958 172.822 118.958L173.071 118.958C177.761 119.009 181.52 120.466 184.242 123.288C185.341 124.427 185.839 125.503 185.722 126.484C185.613 127.396 184.963 128.236 183.789 128.981C182.604 129.733 180.783 130.363 178.219 130.909C174.775 131.642 172.813 132.873 172.546 134.47C172.3 135.944 173.474 137.474 176.039 139.015C179.516 141.106 183.027 143.099 186.744 145.21C188.139 146.003 189.544 146.802 190.958 147.611L177.938 155.108C172.727 149.15 166.376 146.373 157.983 146.373C157.04 146.373 156.06 146.409 155.067 146.483C147.802 147.015 142.175 150.542 141.383 155.057C140.528 159.932 143.739 162.723 156.237 167.763L139.078 177.659Z" fill="#FFD666"/>
<path d="M130.853 113.574L136.386 116.747C140.803 119.28 145.119 121.755 149.443 124.225C152.73 126.103 155.483 127.015 157.86 127.015C160.822 127.015 163.162 125.569 164.818 122.717C166.091 120.525 168.783 119.413 172.82 119.413L173.064 119.414C177.629 119.463 181.279 120.873 183.915 123.605C184.602 124.318 185.396 125.387 185.271 126.433C185.179 127.203 184.598 127.933 183.544 128.601C182.421 129.313 180.597 129.941 178.123 130.469C174.429 131.254 172.402 132.576 172.098 134.398C171.818 136.074 173.064 137.759 175.804 139.406C179.285 141.499 182.797 143.493 186.516 145.607C187.686 146.271 188.863 146.94 190.047 147.616L187.494 149.085L178.03 154.535C172.832 148.742 166.265 145.924 157.981 145.924C157.028 145.924 156.036 145.961 155.033 146.034C147.56 146.583 141.764 150.262 140.935 154.983C139.971 160.481 144.355 163.418 155.204 167.839L148.856 171.499L139.08 177.135C137.851 176.415 136.627 175.702 135.408 174.994C131.915 172.961 128.614 171.042 125.356 169.028C124.393 168.432 122.137 167.038 121.636 165.921C121.348 165.278 121.476 165.033 121.524 164.942C122.07 163.896 125.766 163.199 126.98 162.969C130.836 162.241 133.49 160.512 134.259 158.225C134.828 156.535 134.309 154.683 132.796 153.01C130.077 150.001 125.808 148.262 120.453 147.981C120.111 147.963 119.774 147.954 119.442 147.954C114.943 147.954 111.411 149.577 109.751 152.41C108.522 154.508 106.855 155.528 104.657 155.528C102.707 155.528 100.333 154.72 97.6017 153.126C93.3129 150.622 89.0776 148.182 84.594 145.598C83.0825 144.726 81.5602 143.849 80.0252 142.963C81.3282 142.211 82.6258 141.466 83.9189 140.723C87.9829 138.386 91.8214 136.178 95.7096 133.898C98.0774 132.51 99.1684 130.986 98.9536 129.369C98.6782 127.298 96.305 125.639 91.8993 124.438C91.7661 124.402 91.6329 124.368 91.4988 124.332L91.1998 124.253C86.0791 122.881 83.1015 120.534 83.4287 118.124C83.7467 115.777 87.6468 113.743 92.1222 113.588C92.3252 113.581 92.5273 113.577 92.7284 113.577C97.2501 113.577 101.172 115.302 103.487 118.312C105.592 121.047 108.634 122.554 112.052 122.554C114.169 122.554 116.348 121.95 118.353 120.807C121.33 119.111 124.213 117.434 127.266 115.658C128.452 114.968 129.647 114.273 130.853 113.574ZM130.851 112.528C126.44 115.083 122.204 117.571 117.905 120.02C115.982 121.115 113.976 121.648 112.052 121.648C109.007 121.648 106.169 120.313 104.205 117.759C101.726 114.537 97.4947 112.671 92.7284 112.671C92.5173 112.671 92.3043 112.675 92.0914 112.682C87.1158 112.854 82.9122 115.193 82.5316 118.002C82.1356 120.925 85.3198 123.615 90.9669 125.128C91.1979 125.189 91.4317 125.248 91.6619 125.311C98.6175 127.206 100.07 130.29 95.252 133.115C89.6656 136.392 83.9986 139.622 78.2138 142.961C84.7063 146.711 90.956 150.293 97.1477 153.907C100.032 155.591 102.54 156.433 104.66 156.433C107.174 156.433 109.141 155.246 110.536 152.868C112.009 150.353 115.252 148.859 119.445 148.859C119.761 148.859 120.082 148.867 120.408 148.884C125.65 149.16 129.624 150.847 132.127 153.616C135.393 157.23 132.961 160.916 126.814 162.077C121.64 163.054 119.816 164.069 120.811 166.289C121.364 167.521 123.216 168.768 124.881 169.797C129.454 172.624 134.239 175.341 139.078 178.182C145.294 174.598 151.255 171.162 157.272 167.692C144.268 162.515 141.007 159.829 141.83 155.138C142.569 150.924 147.971 147.46 155.101 146.937C156.095 146.863 157.055 146.828 157.983 146.828C167.265 146.828 173.314 150.39 177.84 155.689C182.699 152.891 187.257 150.267 191.868 147.611C186.519 144.539 181.289 141.642 176.273 138.628C171.141 135.543 172.115 132.671 178.314 131.353C180.417 130.905 182.587 130.282 184.032 129.365C186.784 127.62 186.847 125.334 184.57 122.975C182.002 120.313 178.238 118.563 173.077 118.507C172.992 118.506 172.907 118.505 172.823 118.505C168.321 118.505 165.444 119.838 164.037 122.261C162.545 124.83 160.511 126.107 157.863 126.107C155.649 126.107 153.007 125.215 149.894 123.437C143.638 119.866 137.401 116.282 130.851 112.528Z" fill="#E1B12C"/>
<path d="M177.839 155.692V172.58L191.866 164.501V147.614L177.839 155.692Z" fill="#E1B12C"/>
<path d="M178.312 131.356C180.411 130.904 182.589 130.286 184.03 129.368C185.392 128.497 186.105 127.498 186.184 126.422V142.958L186.167 142.966C186.191 143.402 186.119 143.83 185.938 144.233C182.643 142.363 179.42 140.519 176.269 138.634C171.137 135.546 172.111 132.67 178.312 131.356Z" fill="#E1B12C"/>
<path d="M258.055 185.866V202.751C252.93 205.618 248.218 208.477 243.047 211.044C239.879 212.611 236.07 211.827 233.496 209.444C232.751 208.756 232.174 208.011 231.588 207.282C230.234 205.611 227.905 204.296 225.181 203.536V220.31H225.166C225.126 221.11 224.572 221.902 223.416 222.622C217.674 226.17 211.585 229.536 205.368 233.147C199.595 229.837 194.003 226.629 188.412 223.414C187.311 222.781 186.25 222.123 185.109 221.513C183.383 220.594 181.712 220.016 180.16 219.771L177.087 219.731C175.202 220.032 173.65 220.959 172.644 222.526C172.367 222.962 172.145 223.413 171.852 223.849C170.173 226.344 165.516 227.659 160.725 226.985C155.831 226.304 151.119 223.39 150.255 220.507C150.153 220.19 150.113 219.866 150.113 219.557V202.633H150.121C150.121 202.229 150.2 201.824 150.35 201.437C149.448 200.922 148.552 200.399 147.65 199.884C146.739 199.353 145.852 198.815 144.585 198.063V181.178C145.702 180.505 146.787 179.848 147.872 179.206L157.272 173.749V167.691C153.819 166.321 151.047 165.117 148.87 164.016V156.683H148.886C148.878 156.145 148.965 155.59 149.155 155.02C149.923 152.692 153.803 150.958 158.445 150.878C163.101 150.791 167.133 152.074 169.453 154.419C170.149 155.132 170.68 155.884 171.322 156.604C174.513 160.208 179.97 160.865 184.167 158.212C187.865 155.884 191.723 153.627 195.54 151.353C195.991 151.092 196.617 150.925 197.195 150.703C198.669 151.559 200.126 152.414 201.591 153.27C205.392 155.487 209.193 157.704 213.177 160.033V164.603C213.13 164.619 213.074 164.626 213.026 164.643C209.407 165.506 207.411 167.398 207.411 169.553V177.742C207.68 177.884 207.957 178.027 208.243 178.161C211.181 179.595 214.714 180.624 218.333 181.037C226.831 181.987 232.335 179.936 237.165 173.798C244.148 177.836 250.92 181.74 258.055 185.866Z" fill="#E1B12C"/>
<path d="M150.34 201.428C149.438 200.922 148.55 200.399 147.648 199.884C146.737 199.353 145.85 198.815 144.583 198.063V181.178C145.85 181.923 146.737 182.469 147.648 182.999C151.591 185.28 155.568 187.537 159.479 189.833C165.055 193.112 164.358 196.027 157.713 197.421C157.277 197.508 156.826 197.571 156.383 197.651C153.231 198.252 151.037 199.686 150.34 201.428Z" fill="#273C75"/>
<path d="M161.332 171.365C159.986 172.165 158.632 172.957 157.27 173.749V167.691C153.817 166.321 151.045 165.118 148.868 164.017V156.683H148.876C148.884 159.622 151.774 161.934 157.255 163.32C164.596 165.165 166.274 168.428 161.332 171.365Z" fill="#273C75"/>
<path d="M213.174 160.032V164.602C213.127 164.618 213.072 164.625 213.023 164.642C209.404 165.505 207.408 167.397 207.408 169.552V177.741C204.478 176.181 202.237 174.209 201.254 172.055C199.948 169.204 200.201 166.884 201.761 165.022C203.71 162.709 207.678 161.093 213.174 160.032Z" fill="#273C75"/>
<path opacity="0.1" d="M213.174 160.032V164.602C213.127 164.618 213.072 164.625 213.023 164.642C209.404 165.505 207.408 167.397 207.408 169.552V177.741C204.478 176.181 202.237 174.209 201.254 172.055C199.948 169.204 200.201 166.884 201.761 165.022C203.71 162.709 207.678 161.093 213.174 160.032Z" fill="black"/>
<path d="M258.054 185.866V202.751C252.93 205.618 248.218 208.477 243.047 211.043C239.879 212.611 236.07 211.827 233.496 209.444C232.751 208.755 232.174 208.011 231.588 207.282C230.234 205.611 227.905 204.296 225.181 203.536V220.31H225.166C225.126 221.11 224.572 221.902 223.416 222.622C217.674 226.17 211.585 229.536 205.368 233.147C199.594 229.837 194.003 226.629 188.412 223.414C187.311 222.781 186.25 222.123 185.109 221.513C183.383 220.594 181.712 220.016 180.159 219.771L177.087 219.731C175.202 220.031 173.65 220.958 172.644 222.526C172.367 222.962 172.145 223.413 171.852 223.849C170.173 226.344 165.516 227.659 160.724 226.985C155.83 226.304 151.118 223.39 150.255 220.507C150.153 220.19 150.113 219.866 150.113 219.557V202.886C150.136 203.132 150.184 203.369 150.255 203.615C151.118 206.497 155.83 209.42 160.724 210.101C165.516 210.766 170.173 209.46 171.852 206.965C172.145 206.529 172.367 206.078 172.644 205.642C174.869 202.173 179.755 201.769 185.11 204.621C186.25 205.231 187.312 205.896 188.413 206.529C194.004 209.737 199.595 212.944 205.368 216.262C211.585 212.651 217.676 209.285 223.417 205.729C226.735 203.677 225.215 200.977 220.288 199.441C219.053 199.053 217.723 198.791 216.479 198.404C211.925 196.994 209.145 194.119 209.62 191.363C210.127 188.432 214.412 186.065 219.456 185.938C224.422 185.811 229.356 187.625 231.589 190.389C232.175 191.125 232.753 191.869 233.497 192.559C236.07 194.943 239.88 195.727 243.048 194.159C248.218 191.592 252.931 188.725 258.054 185.866Z" fill="#273C75"/>
<path opacity="0.1" d="M225.164 220.309H225.179V203.535L225.159 203.548C225.068 204.302 224.511 205.05 223.414 205.728C217.672 209.284 211.583 212.65 205.366 216.261L205.364 216.26L205.366 233.146C211.583 229.535 217.673 226.169 223.414 222.621C224.57 221.9 225.125 221.109 225.164 220.309Z" fill="black"/>
<path d="M237.164 173.8C244.149 177.833 250.917 181.741 258.055 185.864C252.928 188.727 248.219 191.589 243.049 194.156C239.883 195.727 236.071 194.939 233.499 192.557C232.754 191.868 232.177 191.123 231.585 190.391C229.351 187.629 224.419 185.812 219.454 185.94C214.414 186.069 210.125 188.434 209.62 191.361C209.144 194.119 211.925 196.996 216.48 198.406C217.72 198.791 219.049 199.055 220.286 199.442C225.21 200.98 226.73 203.678 223.413 205.731C217.669 209.285 211.586 212.653 205.363 216.261C199.589 212.946 193.999 209.739 188.411 206.53C187.306 205.896 186.246 205.232 185.104 204.623C179.754 201.771 174.863 202.174 172.64 205.639C172.36 206.075 172.138 206.528 171.848 206.961C170.169 209.46 165.509 210.77 160.718 210.101C155.824 209.417 151.117 206.502 150.249 203.617C149.449 200.958 151.987 198.49 156.384 197.654C156.823 197.571 157.28 197.511 157.713 197.42C164.359 196.026 165.057 193.116 159.48 189.838C155.57 187.539 151.592 185.278 147.65 182.996C146.736 182.468 145.847 181.926 144.585 181.177C146.004 180.327 147.356 179.499 148.743 178.691C152.935 176.246 157.174 173.827 161.332 171.363C166.276 168.432 164.597 165.166 157.251 163.318C150.783 161.69 147.916 158.754 149.149 155.017C149.917 152.69 153.798 150.96 158.445 150.876C163.096 150.793 167.127 152.076 169.448 154.421C170.148 155.128 170.674 155.881 171.316 156.605C174.509 160.209 179.969 160.86 184.165 158.214C187.866 155.879 191.724 153.628 195.541 151.357C195.988 151.09 196.616 150.926 197.193 150.702C202.483 153.791 207.654 156.811 213.171 160.033C203.262 161.951 198.329 165.652 201.257 172.059C203.278 176.481 210.609 180.163 218.327 181.033C226.829 181.989 232.332 179.935 237.164 173.8Z" fill="#273C75"/>
<path opacity="0.4" d="M237.164 173.8C244.149 177.833 250.917 181.741 258.055 185.864C252.928 188.727 248.219 191.589 243.049 194.156C239.883 195.727 236.071 194.939 233.499 192.557C232.754 191.868 232.177 191.123 231.585 190.391C229.351 187.629 224.419 185.812 219.454 185.94C214.414 186.069 210.125 188.434 209.62 191.361C209.144 194.119 211.925 196.996 216.48 198.406C217.72 198.791 219.049 199.055 220.286 199.442C225.21 200.98 226.73 203.678 223.413 205.731C217.669 209.285 211.586 212.653 205.363 216.261C199.589 212.946 193.999 209.739 188.411 206.53C187.306 205.896 186.246 205.232 185.104 204.623C179.754 201.771 174.863 202.174 172.64 205.639C172.36 206.075 172.138 206.528 171.848 206.961C170.169 209.46 165.509 210.77 160.718 210.101C155.824 209.417 151.117 206.502 150.249 203.617C149.449 200.958 151.987 198.49 156.384 197.654C156.823 197.571 157.28 197.511 157.713 197.42C164.359 196.026 165.057 193.116 159.48 189.838C155.57 187.539 151.592 185.278 147.65 182.996C146.736 182.468 145.847 181.926 144.585 181.177C146.004 180.327 147.356 179.499 148.743 178.691C152.935 176.246 157.174 173.827 161.332 171.363C166.276 168.432 164.597 165.166 157.251 163.318C150.783 161.69 147.916 158.754 149.149 155.017C149.917 152.69 153.798 150.96 158.445 150.876C163.096 150.793 167.127 152.076 169.448 154.421C170.148 155.128 170.674 155.881 171.316 156.605C174.509 160.209 179.969 160.86 184.165 158.214C187.866 155.879 191.724 153.628 195.541 151.357C195.988 151.09 196.616 150.926 197.193 150.702C202.483 153.791 207.654 156.811 213.171 160.033C203.262 161.951 198.329 165.652 201.257 172.059C203.278 176.481 210.609 180.163 218.327 181.033C226.829 181.989 232.332 179.935 237.164 173.8Z" fill="#5679DA"/>
<path opacity="0.4" d="M148.875 156.682C148.867 156.532 148.875 156.373 148.898 156.223C148.882 156.381 148.882 156.532 148.882 156.682H148.875Z" fill="#5679DA"/>
<path opacity="0.4" d="M150.112 202.632C150.114 202.428 150.129 202.226 150.174 202.03C150.134 202.229 150.119 202.434 150.119 202.632H150.112Z" fill="#5679DA"/>
<path opacity="0.4" d="M150.11 202.632C150.109 202.716 150.105 202.799 150.11 202.886V202.632Z" fill="#5679DA"/>
<path opacity="0.4" d="M150.348 201.437C150.277 201.627 150.213 201.833 150.174 202.03C150.198 201.824 150.261 201.626 150.341 201.428C150.34 201.437 150.348 201.437 150.348 201.437Z" fill="#5679DA"/>
<path opacity="0.1" d="M177.839 202.756C175.609 202.905 173.777 203.872 172.642 205.642C172.365 206.078 172.143 206.529 171.85 206.965C170.749 208.601 168.366 209.721 165.507 210.114V227.002C168.366 226.609 170.75 225.485 171.85 223.849C172.143 223.413 172.365 222.962 172.642 222.526C173.648 220.959 175.2 220.032 177.085 219.731L177.839 219.741V202.756Z" fill="black"/>
<path opacity="0.1" d="M243.047 194.158C241.577 194.886 239.97 195.102 238.413 194.892V211.776C239.97 211.985 241.578 211.769 243.047 211.043C248.218 208.477 252.93 205.618 258.054 202.751V185.865C252.931 188.725 248.218 191.592 243.047 194.158Z" fill="black"/>
<path d="M273.076 101.001V84.1058L273.062 84.1039C273.069 80.8237 268.366 77.3223 261.319 76.833C259.431 76.7016 257.811 76.544 256.427 76.3464C256.98 75.3334 257.527 74.3303 258.085 73.3063V56.4185C251.434 54.7195 245.126 53.1618 238.891 51.5036V39.4564L238.885 39.4582C238.883 38.707 238.617 37.9132 238.048 37.0759C236.134 34.2615 232.269 32.7409 227.413 32.1945C222.991 31.6971 219.367 32.4401 217.693 34.6429C216.695 35.955 216.442 37.6233 216.626 39.1655C217.106 43.1824 213.371 44.7918 206.561 43.2359C204.797 42.8327 203.065 42.3597 201.319 41.9184C194.606 40.2203 187.894 38.5221 181.033 36.7869C178.355 41.661 175.673 46.267 173.302 50.9472C173.012 51.5199 172.88 52.0609 172.881 52.5665L172.874 52.5683V66.0363C169.51 64.8592 165.987 65.1709 164.578 67.1871C161.979 70.9077 160.041 74.8268 157.709 78.861V95.7488C166.814 98.0676 175.44 100.264 184.244 102.506V99.7231C184.733 94.8789 188.073 92.1034 194.401 91.0758C200.965 90.0102 209.274 91.4365 214.446 94.5753V110.196C220.387 111.73 225.962 113.113 231.464 114.614C234.108 115.335 235.506 115.142 236.215 113.587C237.514 110.736 239.013 107.93 240.492 105.122C242.5 101.311 248.562 100.901 254.115 104.062C255.889 105.071 258.102 106.096 260.315 106.517C266.433 107.682 272.788 104.962 273.066 101.236C273.071 101.158 273.061 101.079 273.061 101L273.076 101.001Z" fill="#273C75"/>
<path opacity="0.1" d="M247.475 85.0861V101.978C244.347 101.788 241.694 102.842 240.49 105.123C239.009 107.935 237.512 110.738 236.214 113.589C235.833 114.428 235.239 114.856 234.369 114.974V98.0902C235.248 97.9869 235.834 97.5438 236.214 96.6965C237.512 93.8531 239.009 91.0422 240.49 88.2386C241.694 85.9578 244.347 84.8886 247.475 85.0861Z" fill="black"/>
<path opacity="0.1" d="M214.443 93.3066V94.5734C209.271 91.4372 200.964 90.0118 194.398 91.0729C188.07 92.1023 184.735 94.8742 184.245 99.7212V85.6161C183.619 79.0266 186.946 75.4003 194.398 74.1878C201.581 73.0234 210.862 74.8294 215.828 78.6153C223.186 84.2152 221.57 89.0223 214.443 93.3066Z" fill="black"/>
<path opacity="0.1" d="M251.617 68.2734C251.577 68.3368 251.53 68.4003 251.49 68.4637C248.678 73.3659 249.566 75.3613 256.424 76.3435C256.979 75.3296 257.525 74.3319 258.087 73.3025V56.4183C255.893 60.4407 253.755 64.3607 251.617 68.2734ZM194.92 61.5806C193.051 58.7136 188.513 56.8922 182.835 56.7337C182.234 56.7183 181.632 56.7101 181.022 56.6865C175.946 56.489 172.889 54.9286 172.873 52.5681V66.0316C173.443 66.2292 173.998 66.4675 174.544 66.7438C175.321 67.148 176.041 67.5829 176.801 67.9871C181.323 70.3865 186.764 70.9728 190.93 69.5076C195.213 68.0034 196.908 64.6298 194.92 61.5806Z" fill="black"/>
<path opacity="0.1" d="M238.201 51.3247C232.277 49.7326 230.764 46.6363 234.534 44.1181C234.977 43.8254 235.548 43.6034 236.014 43.318C237.867 42.2089 238.889 40.9185 238.889 39.4614V51.4996C238.66 51.4352 238.431 51.3881 238.201 51.3247Z" fill="black"/>
<path d="M214.445 93.3084C221.568 89.0233 223.186 84.2171 215.828 78.6126C210.864 74.8312 201.582 73.0207 194.4 74.187C186.944 75.3976 183.62 79.024 184.243 85.6171C175.439 83.3753 166.813 81.1788 157.708 78.8599C160.04 74.8258 161.978 70.9067 164.577 67.1861C166.223 64.831 170.749 64.7948 174.541 66.7475C175.317 67.1471 176.037 67.583 176.802 67.9889C181.321 70.3893 186.761 70.972 190.929 69.5067C195.209 68.0025 196.909 64.6271 194.921 61.5816C193.049 58.7127 188.515 56.8941 182.837 56.7364C182.232 56.7192 181.627 56.7083 181.02 56.6848C174.848 56.451 171.659 54.1847 173.3 50.9462C175.671 46.2659 178.353 41.66 181.031 36.7858C187.892 38.5211 194.604 40.2192 201.317 41.9173C203.063 42.3586 204.795 42.8316 206.559 43.2349C213.369 44.7907 217.104 43.1814 216.625 39.1645C216.441 37.6231 216.693 35.9549 217.691 34.6419C219.366 32.4382 222.989 31.6951 227.412 32.1935C232.268 32.7399 236.132 34.2604 238.047 37.0749C239.722 39.5387 238.83 41.6391 236.013 43.3219C235.545 43.6018 234.976 43.8266 234.536 44.1202C230.76 46.6393 232.273 49.7355 238.201 51.3213C244.659 53.0484 251.188 54.6559 258.083 56.4175C255.891 60.4371 253.753 64.3571 251.614 68.2771C251.58 68.3405 251.527 68.3994 251.491 68.4628C248.112 74.3655 250.057 76.0491 261.317 76.832C268.54 77.334 273.314 80.9993 273.065 84.3485C272.787 88.0745 266.433 90.7939 260.314 89.6295C258.1 89.2081 255.887 88.1833 254.114 87.1738C248.56 84.0132 242.498 84.4228 240.491 88.234C239.011 91.0431 237.513 93.8494 236.214 96.6992C235.505 98.2542 234.106 98.4463 231.463 97.725C225.961 96.2253 220.386 94.8425 214.445 93.3084Z" fill="#273C75"/>
<path opacity="0.4" d="M214.445 93.3084C221.568 89.0233 223.186 84.2171 215.828 78.6126C210.864 74.8312 201.582 73.0207 194.4 74.187C186.944 75.3976 183.62 79.024 184.243 85.6171C175.439 83.3753 166.813 81.1788 157.708 78.8599C160.04 74.8258 161.978 70.9067 164.577 67.1861C166.223 64.831 170.749 64.7948 174.541 66.7475C175.317 67.1471 176.037 67.583 176.802 67.9889C181.321 70.3893 186.761 70.972 190.929 69.5067C195.209 68.0025 196.909 64.6271 194.921 61.5816C193.049 58.7127 188.515 56.8941 182.837 56.7364C182.232 56.7192 181.627 56.7083 181.02 56.6848C174.848 56.451 171.659 54.1847 173.3 50.9462C175.671 46.2659 178.353 41.66 181.031 36.7858C187.892 38.5211 194.604 40.2192 201.317 41.9173C203.063 42.3586 204.795 42.8316 206.559 43.2349C213.369 44.7907 217.104 43.1814 216.625 39.1645C216.441 37.6231 216.693 35.9549 217.691 34.6419C219.366 32.4382 222.989 31.6951 227.412 32.1935C232.268 32.7399 236.132 34.2604 238.047 37.0749C239.722 39.5387 238.83 41.6391 236.013 43.3219C235.545 43.6018 234.976 43.8266 234.536 44.1202C230.76 46.6393 232.273 49.7355 238.201 51.3213C244.659 53.0484 251.188 54.6559 258.083 56.4175C255.891 60.4371 253.753 64.3571 251.614 68.2771C251.58 68.3405 251.527 68.3994 251.491 68.4628C248.112 74.3655 250.057 76.0491 261.317 76.832C268.54 77.334 273.314 80.9993 273.065 84.3485C272.787 88.0745 266.433 90.7939 260.314 89.6295C258.1 89.2081 255.887 88.1833 254.114 87.1738C248.56 84.0132 242.498 84.4228 240.491 88.234C239.011 91.0431 237.513 93.8494 236.214 96.6992C235.505 98.2542 234.106 98.4463 231.463 97.725C225.961 96.2253 220.386 94.8425 214.445 93.3084Z" fill="#5679DA"/>
<path d="M7.80444 87.8307V83C7.80444 83 9.14463 82.1791 9.79706 81.8048C16.5723 77.7952 22.4287 74.3292 25.4244 74.2449C27.4415 74.1842 28.2987 75.3921 28.4192 76.4305C28.5515 77.4934 29.2284 78.0969 29.7839 78.4113C31.7403 79.5467 35.7019 79.1 38.6125 77.4091C38.9559 77.2116 39.264 77.0032 39.5476 76.7911C38.9432 76.5854 38.0978 76.4051 36.9216 76.358C35.1537 76.2873 33.133 75.8143 33.1267 74.7134C33.1267 74.6862 33.1276 74.659 33.1303 74.6309C33.2001 73.7918 33.133 70.807 33.1267 69.8827C33.1267 69.8555 33.1276 69.8283 33.1303 69.8002C33.2997 67.7596 39.5675 64.2329 46.4633 60.6826L47.9485 61.5398C54.18 65.1508 57.9605 67.3364 61.3413 67.1552C63.7806 67.022 65.1697 65.5486 65.6165 64.3289C65.9672 63.3503 66.7038 62.7713 67.2593 62.4451C69.2401 61.2979 72.6935 61.4429 74.976 62.7586C76.2156 63.4735 76.8536 64.3915 76.8599 65.2632C76.8653 65.9962 76.8536 69.2221 76.8599 70.0938C76.8653 70.8269 76.4241 71.5264 75.5197 72.0457C74.9643 72.3719 73.9494 72.7941 72.2585 72.9998C71.3442 73.1095 70.3574 73.3279 69.5029 73.6468C71.1893 74.9607 73.7518 76.4758 76.811 78.241C77.1852 78.4585 77.5595 78.6759 77.9464 78.9052L79.2503 79.6537V84.4843C79.2503 84.4843 67.137 92.2862 63.8649 92.3823C61.8487 92.4303 60.9906 91.2351 60.8701 90.184C60.7496 89.121 60.0609 88.5293 59.5054 88.2031C57.5491 87.0804 53.5883 87.5271 50.6778 89.2053C50.3334 89.4038 50.0235 89.6131 49.739 89.826C50.3407 90.0326 51.1879 90.2093 52.3677 90.2565C54.1438 90.3271 56.1609 90.7983 56.1754 91.9056C56.1754 91.9355 56.1744 91.9654 56.1717 91.9953C56.1056 92.7474 56.1627 95.7531 56.1754 96.7363C56.1754 96.7662 56.1744 96.7961 56.1717 96.826C56.0023 98.7579 48.2375 102.937 40.6531 106.838C39.1797 105.968 37.8151 105.147 36.6198 104.422C32.1399 101.717 29.1804 99.9296 26.3306 100.086C23.8912 100.22 22.5021 101.693 22.0554 102.913C21.7056 103.89 20.9689 104.47 20.4125 104.796C18.4317 105.932 14.9784 105.799 12.6958 104.483C11.458 103.769 10.8201 102.853 10.8119 101.983C10.8047 101.248 10.8201 98.0221 10.8119 97.1522C10.8047 96.4173 11.246 95.716 12.1521 95.1959C12.7076 94.8696 13.7225 94.4474 15.4133 94.2417C16.2452 94.142 17.1414 93.9544 17.9406 93.6808C16.4119 92.6197 14.2499 91.419 11.7425 90.0263C10.4613 89.3286 7.80444 87.8307 7.80444 87.8307Z" fill="#273C75"/>
<path opacity="0.2" d="M7.80444 87.8307V83C7.80444 83 9.14463 82.1791 9.79706 81.8048C16.5723 77.7952 22.4287 74.3292 25.4244 74.2449C27.4415 74.1842 28.2987 75.3921 28.4192 76.4305C28.5515 77.4934 29.2284 78.0969 29.7839 78.4113C31.7403 79.5467 35.7019 79.1 38.6125 77.4091C38.9559 77.2116 39.264 77.0032 39.5476 76.7911C38.9432 76.5854 38.0978 76.4051 36.9216 76.358C35.1537 76.2873 33.133 75.8143 33.1267 74.7134C33.1267 74.6862 33.1276 74.659 33.1303 74.6309C33.2001 73.7918 33.133 70.807 33.1267 69.8827C33.1267 69.8555 33.1276 69.8283 33.1303 69.8002C33.2997 67.7596 39.5675 64.2329 46.4633 60.6826L47.9485 61.5398C54.18 65.1508 57.9605 67.3364 61.3413 67.1552C63.7806 67.022 65.1697 65.5486 65.6165 64.3289C65.9672 63.3503 66.7038 62.7713 67.2593 62.4451C69.2401 61.2979 72.6935 61.4429 74.976 62.7586C76.2156 63.4735 76.8536 64.3915 76.8599 65.2632C76.8653 65.9962 76.8536 69.2221 76.8599 70.0938C76.8653 70.8269 76.4241 71.5264 75.5197 72.0457C74.9643 72.3719 73.9494 72.7941 72.2585 72.9998C71.3442 73.1095 70.3574 73.3279 69.5029 73.6468C71.1893 74.9607 73.7518 76.4758 76.811 78.241C77.1852 78.4585 77.5595 78.6759 77.9464 78.9052L79.2503 79.6537V84.4843C79.2503 84.4843 67.137 92.2862 63.8649 92.3823C61.8487 92.4303 60.9906 91.2351 60.8701 90.184C60.7496 89.121 60.0609 88.5293 59.5054 88.2031C57.5491 87.0804 53.5883 87.5271 50.6778 89.2053C50.3334 89.4038 50.0235 89.6131 49.739 89.826C50.3407 90.0326 51.1879 90.2093 52.3677 90.2565C54.1438 90.3271 56.1609 90.7983 56.1754 91.9056C56.1754 91.9355 56.1744 91.9654 56.1717 91.9953C56.1056 92.7474 56.1627 95.7531 56.1754 96.7363C56.1754 96.7662 56.1744 96.7961 56.1717 96.826C56.0023 98.7579 48.2375 102.937 40.6531 106.838C39.1797 105.968 37.8151 105.147 36.6198 104.422C32.1399 101.717 29.1804 99.9296 26.3306 100.086C23.8912 100.22 22.5021 101.693 22.0554 102.913C21.7056 103.89 20.9689 104.47 20.4125 104.796C18.4317 105.932 14.9784 105.799 12.6958 104.483C11.458 103.769 10.8201 102.853 10.8119 101.983C10.8047 101.248 10.8201 98.0221 10.8119 97.1522C10.8047 96.4173 11.246 95.716 12.1521 95.1959C12.7076 94.8696 13.7225 94.4474 15.4133 94.2417C16.2452 94.142 17.1414 93.9544 17.9406 93.6808C16.4119 92.6197 14.2499 91.419 11.7425 90.0263C10.4613 89.3286 7.80444 87.8307 7.80444 87.8307Z" fill="black"/>
<path d="M12.6949 99.6542C14.9775 100.971 18.4317 101.103 20.4116 99.9677C20.9671 99.6415 21.7038 99.0616 22.0544 98.0839C22.5012 96.8642 23.8903 95.3908 26.3296 95.2576C29.1795 95.1008 32.138 96.8878 36.6189 99.5935C37.815 100.318 39.1788 101.139 40.6522 102.008C48.2366 98.1074 56.0013 93.9292 56.1708 91.9973C56.1735 91.9674 56.1744 91.9375 56.1735 91.9076C56.159 90.8003 54.1428 90.3291 52.3659 90.2584C50.53 90.1859 49.4916 89.799 48.9479 89.4737C46.9789 88.3501 47.7645 86.0557 50.675 84.3775C53.5856 82.6993 57.5463 82.2517 59.5027 83.3753C60.0581 83.7015 60.7468 84.2933 60.8673 85.3562C60.9878 86.4073 61.846 87.6025 63.8621 87.5545C67.1351 87.4575 72.485 84.0404 79.2476 79.6565L79.1388 79.5958L77.9427 78.9071C77.5567 78.6779 77.1816 78.4604 76.8073 78.2429C71.0714 74.9337 67.0491 72.4943 67.3635 70.6349C67.5927 69.2223 70.1408 68.4249 72.2539 68.1711C73.9448 67.9654 74.9588 67.5432 75.5152 67.217C76.4195 66.6987 76.8608 65.9982 76.8553 65.2651C76.849 64.3934 76.2111 63.4755 74.9715 62.7605C72.6889 61.4439 69.2356 61.2989 67.2547 62.447C66.6993 62.7732 65.9626 63.3523 65.6119 64.3309C65.1652 65.5506 63.7761 67.0239 61.3367 67.1572C57.955 67.3384 54.1755 65.1528 47.9439 61.5418L46.4587 60.6846C39.563 64.2348 33.2952 67.7616 33.1257 69.8022C33.123 69.8303 33.1221 69.8575 33.1221 69.8847C33.1284 70.9847 35.1491 71.4586 36.917 71.5293C38.7529 71.6018 39.7913 72.0005 40.3468 72.314C42.3032 73.4494 41.5184 75.732 38.6079 77.4102C35.6974 79.101 31.7366 79.5478 29.7793 78.4124C29.2239 78.0989 28.5479 77.4944 28.4147 76.4315C28.2942 75.3931 27.436 74.1852 25.4199 74.2459C22.4251 74.3302 16.5677 77.7962 9.79249 81.8059C9.14007 82.1801 8.47586 82.5906 7.79988 83.0011C9.15275 83.7623 10.4567 84.499 11.7371 85.1994C16.8695 88.0492 20.5774 90.1025 20.2992 91.7816C20.07 93.1943 17.5219 93.9917 15.4079 94.2454C13.717 94.4511 12.703 94.8734 12.1467 95.1996C11.2405 95.7188 10.7992 96.4211 10.8065 97.156C10.8201 98.0241 11.4571 98.9402 12.6949 99.6542Z" fill="#273C75"/>
<path opacity="0.5" d="M12.6949 99.6542C14.9775 100.971 18.4317 101.103 20.4116 99.9677C20.9671 99.6415 21.7038 99.0616 22.0544 98.0839C22.5012 96.8642 23.8903 95.3908 26.3296 95.2576C29.1795 95.1008 32.138 96.8878 36.6189 99.5935C37.815 100.318 39.1788 101.139 40.6522 102.008C48.2366 98.1074 56.0013 93.9292 56.1708 91.9973C56.1735 91.9674 56.1744 91.9375 56.1735 91.9076C56.159 90.8003 54.1428 90.3291 52.3659 90.2584C50.53 90.1859 49.4916 89.799 48.9479 89.4737C46.9789 88.3501 47.7645 86.0557 50.675 84.3775C53.5856 82.6993 57.5463 82.2517 59.5027 83.3753C60.0581 83.7015 60.7468 84.2933 60.8673 85.3562C60.9878 86.4073 61.846 87.6025 63.8621 87.5545C67.1351 87.4575 72.485 84.0404 79.2476 79.6565L79.1388 79.5958L77.9427 78.9071C77.5567 78.6779 77.1816 78.4604 76.8073 78.2429C71.0714 74.9337 67.0491 72.4943 67.3635 70.6349C67.5927 69.2223 70.1408 68.4249 72.2539 68.1711C73.9448 67.9654 74.9588 67.5432 75.5152 67.217C76.4195 66.6987 76.8608 65.9982 76.8553 65.2651C76.849 64.3934 76.2111 63.4755 74.9715 62.7605C72.6889 61.4439 69.2356 61.2989 67.2547 62.447C66.6993 62.7732 65.9626 63.3523 65.6119 64.3309C65.1652 65.5506 63.7761 67.0239 61.3367 67.1572C57.955 67.3384 54.1755 65.1528 47.9439 61.5418L46.4587 60.6846C39.563 64.2348 33.2952 67.7616 33.1257 69.8022C33.123 69.8303 33.1221 69.8575 33.1221 69.8847C33.1284 70.9847 35.1491 71.4586 36.917 71.5293C38.7529 71.6018 39.7913 72.0005 40.3468 72.314C42.3032 73.4494 41.5184 75.732 38.6079 77.4102C35.6974 79.101 31.7366 79.5478 29.7793 78.4124C29.2239 78.0989 28.5479 77.4944 28.4147 76.4315C28.2942 75.3931 27.436 74.1852 25.4199 74.2459C22.4251 74.3302 16.5677 77.7962 9.79249 81.8059C9.14007 82.1801 8.47586 82.5906 7.79988 83.0011C9.15275 83.7623 10.4567 84.499 11.7371 85.1994C16.8695 88.0492 20.5774 90.1025 20.2992 91.7816C20.07 93.1943 17.5219 93.9917 15.4079 94.2454C13.717 94.4511 12.703 94.8734 12.1467 95.1996C11.2405 95.7188 10.7992 96.4211 10.8065 97.156C10.8201 98.0241 11.4571 98.9402 12.6949 99.6542Z" fill="#5679DA"/>
<path d="M309.878 280.942V276.111C309.878 276.111 306.4 274.36 304.745 273.539C301.635 272.008 298.967 270.69 297.069 269.547C297.5 269.484 297.939 269.438 298.369 269.421C300.023 269.36 300.941 269.011 301.424 268.732C302.068 268.361 302.364 267.842 302.345 267.258C302.315 266.351 302.364 263.011 302.345 262.428C302.312 261.455 301.403 260.304 299.758 259.361C297.125 257.84 293.599 257.405 291.883 258.395C291.4 258.672 290.797 259.204 290.688 260.159C290.543 261.354 289.517 262.731 287.077 262.659C284.384 262.586 281.281 260.437 276.981 257.454C275.435 256.379 273.599 255.207 271.655 253.94L271.595 253.976H271.583C270.182 254.785 268.817 255.546 267.489 256.27C262.857 258.827 259.159 260.859 259.181 262.346C259.182 262.39 259.169 266.369 259.181 267.177C259.182 267.221 259.185 267.265 259.192 267.308C259.374 268.467 261.607 269.144 263.456 269.373C265.229 269.591 266.336 270.033 266.993 270.387C266.874 270.467 266.775 270.553 266.644 270.629C264.12 272.078 260.231 272.211 257.961 270.906C257.333 270.532 256.488 269.868 256.101 268.793C255.714 267.719 254.543 266.438 252.514 266.318C249.966 266.184 246.983 267.984 242.479 270.702C241.307 271.414 238.554 273.045 238.554 273.045V277.875L276.885 300C278.31 299.166 279.626 298.37 280.798 297.669C285.411 294.879 288.466 293.032 291.316 293.188C293.767 293.322 295.156 294.795 295.591 296.015C295.942 296.992 296.691 297.572 297.246 297.899C299.227 299.034 302.68 298.901 304.963 297.584C306.23 296.853 306.868 295.91 306.846 295.021C306.828 294.309 306.868 291.079 306.846 290.19C306.828 289.479 306.386 288.802 305.505 288.297C304.95 287.971 303.935 287.549 302.244 287.343C301.417 287.244 300.526 287.057 299.73 286.787C301.239 285.751 303.36 284.58 305.818 283.224C307.136 282.5 309.878 280.942 309.878 280.942Z" fill="#E1B12C"/>
<path d="M239.004 273.042C240.311 272.28 241.515 271.552 242.595 270.894C246.946 268.27 249.819 266.536 252.247 266.536C252.332 266.536 252.417 266.538 252.501 266.542C254.422 266.657 255.526 267.867 255.886 268.869C256.205 269.756 256.883 270.527 257.843 271.099C258.889 271.701 260.313 272.031 261.856 272.031C263.633 272.031 265.419 271.591 266.755 270.823C268.122 270.031 268.906 268.955 268.906 267.869C268.905 266.914 268.309 266.044 267.226 265.419C266.564 265.044 265.377 264.548 263.481 264.315C261.566 264.077 259.566 263.405 259.415 262.44C259.408 262.403 259.406 262.371 259.405 262.339C259.386 260.998 263.155 258.918 267.518 256.509C268.907 255.75 270.258 254.998 271.643 254.199L272.8 254.952C274.264 255.903 275.648 256.801 276.85 257.637C281.177 260.639 284.304 262.808 287.069 262.883L287.258 262.885C289.712 262.885 290.76 261.43 290.911 260.184C291.009 259.325 291.554 258.843 291.995 258.59C292.562 258.262 293.373 258.089 294.337 258.089C296.07 258.089 298.053 258.637 299.643 259.556C301.161 260.427 302.086 261.503 302.116 262.435C302.133 262.959 301.862 263.386 301.308 263.705C300.842 263.974 299.951 264.305 298.359 264.363C297.614 264.394 295.114 264.576 294.165 265.652C293.893 265.96 293.772 266.311 293.805 266.697C293.956 268.402 297.822 270.385 304.643 273.741C306.18 274.504 307.769 275.299 309.401 276.124C308.14 276.853 306.91 277.534 305.709 278.195C300.359 281.142 296.825 283.09 297.117 284.914C297.38 286.45 299.924 287.291 302.217 287.566C303.881 287.768 304.861 288.18 305.389 288.491C306.166 288.936 306.602 289.54 306.617 290.194C306.639 291.034 305.994 291.894 304.848 292.554C303.687 293.224 302.142 293.608 300.609 293.608C299.345 293.608 298.188 293.345 297.356 292.869C296.582 292.414 296.058 291.819 295.802 291.105C295.343 289.82 293.896 288.268 291.327 288.13C291.21 288.123 291.092 288.12 290.974 288.12C288.156 288.12 285.181 289.918 280.679 292.642L279.761 293.192C278.867 293.729 277.902 294.307 276.881 294.905L239.004 273.042Z" fill="#FFD666"/>
<path d="M271.637 254.466L272.686 255.149C274.147 256.096 275.526 256.993 276.724 257.824C281.082 260.848 284.232 263.034 287.065 263.11C287.131 263.112 287.197 263.113 287.261 263.113C289.864 263.113 290.977 261.55 291.139 260.209C291.209 259.596 291.536 259.118 292.112 258.787C292.645 258.479 293.416 258.316 294.341 258.316C296.035 258.316 297.976 258.854 299.534 259.754C300.962 260.572 301.866 261.602 301.894 262.442C301.908 262.875 301.674 263.234 301.2 263.509C300.756 263.764 299.902 264.08 298.352 264.138C297.37 264.177 294.98 264.39 293.999 265.502C293.689 265.854 293.545 266.274 293.583 266.719C293.745 268.548 297.453 270.454 304.545 273.945C305.964 274.649 307.427 275.38 308.928 276.138C307.781 276.795 306.663 277.413 305.602 277.997C300.169 280.991 296.58 282.969 296.897 284.955C297.181 286.613 299.819 287.507 302.193 287.792C303.819 287.99 304.769 288.389 305.283 288.69C305.996 289.099 306.38 289.622 306.394 290.202C306.413 290.956 305.81 291.743 304.738 292.361C303.61 293.012 302.107 293.384 300.612 293.384C299.386 293.384 298.271 293.132 297.476 292.677C296.747 292.249 296.256 291.695 296.019 291.031C295.538 289.68 294.024 288.05 291.342 287.905C291.222 287.898 291.1 287.895 290.978 287.895C288.098 287.895 285.101 289.706 280.567 292.449L279.652 292.997C278.791 293.514 277.864 294.07 276.885 294.645L239.458 273.042C240.645 272.345 241.751 271.676 242.715 271.089C247.033 268.484 249.885 266.764 252.25 266.764C252.331 266.764 252.412 266.765 252.49 266.77C254.303 266.878 255.34 268.01 255.677 268.946C256.015 269.883 256.725 270.695 257.738 271.3C258.815 271.919 260.279 272.259 261.86 272.259C263.676 272.259 265.503 271.808 266.874 271.022C268.314 270.188 269.138 269.04 269.137 267.872C269.136 266.833 268.5 265.893 267.34 265.224C266.661 264.839 265.445 264.331 263.514 264.094C261.382 263.829 259.753 263.121 259.642 262.404C259.638 262.383 259.636 262.362 259.636 262.341C259.618 261.135 263.693 258.886 267.632 256.711L267.708 256.669C269.109 255.901 270.398 255.18 271.637 254.466ZM271.655 253.938L271.594 253.974H271.582C270.181 254.783 268.817 255.545 267.488 256.269C262.856 258.825 259.158 260.857 259.18 262.344C259.181 262.389 259.184 262.432 259.192 262.476C259.373 263.635 261.607 264.312 263.455 264.541C265.327 264.77 266.474 265.253 267.114 265.615C269.372 266.919 269.167 269.166 266.643 270.627C265.287 271.406 263.537 271.804 261.856 271.804C260.408 271.804 259.01 271.508 257.96 270.905C257.332 270.53 256.487 269.866 256.101 268.792C255.714 267.717 254.543 266.436 252.514 266.316C252.425 266.311 252.337 266.309 252.248 266.309C249.758 266.309 246.827 268.077 242.479 270.699C241.307 271.411 239.991 272.209 238.554 273.042L276.885 295.167C278.31 294.333 279.626 293.537 280.798 292.836C285.229 290.157 288.223 288.346 290.977 288.346C291.091 288.346 291.204 288.349 291.317 288.355C293.768 288.488 295.157 289.961 295.592 291.181C295.943 292.159 296.691 292.739 297.247 293.065C298.147 293.581 299.351 293.836 300.612 293.836C302.126 293.836 303.719 293.469 304.964 292.752C306.231 292.021 306.869 291.077 306.847 290.188C306.829 289.477 306.388 288.8 305.507 288.295C304.952 287.969 303.937 287.547 302.246 287.341C300.133 287.087 297.585 286.29 297.343 284.877C297.077 283.211 300.736 281.194 305.821 278.392C307.137 277.667 308.489 276.919 309.879 276.11C308.115 275.216 306.401 274.358 304.746 273.537C298.612 270.518 294.179 268.319 294.035 266.677C293.914 265.265 296.293 264.673 298.37 264.588C300.024 264.527 300.942 264.177 301.425 263.899C302.068 263.528 302.365 263.008 302.346 262.425C302.314 261.453 301.404 260.302 299.759 259.359C298.081 258.389 296.043 257.861 294.34 257.862C293.37 257.862 292.508 258.033 291.885 258.393C291.402 258.671 290.799 259.202 290.69 260.156C290.549 261.321 289.57 262.659 287.262 262.659C287.202 262.659 287.141 262.658 287.079 262.656C284.386 262.584 281.282 260.434 276.983 257.451C275.435 256.377 273.599 255.207 271.655 253.938Z" fill="#E1B12C"/>
<path d="M154.418 22.1372C154.418 22.1372 150.843 20.3376 149.152 19.5048C146.346 18.1257 143.927 16.9341 142.165 15.8866C142.592 15.8241 143.028 15.7788 143.453 15.7615C145.107 15.7008 146.025 15.3511 146.508 15.0729C147.135 14.7113 147.43 14.2093 147.422 13.6439C147.411 12.7305 147.441 9.36326 147.429 8.78605C147.408 7.80832 146.497 6.64573 144.842 5.68885C142.221 4.16743 138.683 3.74426 136.967 4.73467C136.484 5.01286 135.893 5.54386 135.772 6.49803C135.639 7.69324 134.613 9.07057 132.161 8.99808C129.541 8.92559 126.461 6.76353 122.222 3.78141C120.58 2.63423 118.732 1.33029 116.703 0.000976562C115.35 0.785698 114.035 1.51061 112.766 2.21106C108.087 4.80807 104.359 6.87318 104.35 8.36106C104.35 8.40909 104.361 13.334 104.361 13.334C104.554 14.5056 106.788 15.1816 108.636 15.3991C110.397 15.6147 111.499 16.0533 112.158 16.4158C112.04 16.4946 111.941 16.5798 111.812 16.655C109.287 18.1166 105.399 18.2371 103.141 16.9323C102.501 16.5698 101.667 15.9056 101.269 14.8192C100.883 13.7562 99.7229 12.4641 97.6941 12.3553C95.0853 12.2104 92.1874 13.961 87.779 16.6061C86.6192 17.2947 85.3397 18.0668 83.9261 18.8886V23.7193L85.4475 24.7215C91.728 28.8155 96.2805 31.774 99.3115 31.8592C101.329 31.9199 102.198 30.712 102.319 29.6609C102.44 28.6098 103.128 28.0063 103.671 27.6801C105.627 26.5564 109.589 27.0041 112.499 28.6823C112.847 28.8834 113.16 29.0946 113.446 29.3093C112.84 29.5168 111.988 29.698 110.808 29.7443C109.046 29.8032 107.023 30.2843 107.012 31.3762C107.012 31.4079 107.025 35.2482 107.012 36.2042C107.011 36.2359 107.013 36.2685 107.016 36.302C107.185 38.2829 114.636 42.3043 121.701 45.9389C123.077 45.1542 124.394 44.4175 125.65 43.717C130.083 41.2668 133.627 39.3122 133.644 37.8325C133.644 37.7809 133.65 33.8029 133.644 32.9846C133.644 32.9384 133.639 32.8931 133.632 32.8487C133.439 31.6771 131.204 31.0011 129.357 30.7836C127.59 30.567 126.487 30.1267 125.828 29.7633C125.944 29.6854 126.04 29.6011 126.169 29.5277C128.692 28.0661 132.593 27.9456 134.851 29.2495C135.479 29.612 136.325 30.2762 136.712 31.3626C137.098 32.4255 138.269 33.7177 140.298 33.8265C142.822 33.9714 145.732 32.1963 150.164 29.5032C151.432 28.7421 154.415 26.9669 154.415 26.9669V22.1372H154.418Z" fill="#E1B12C"/>
<path d="M121.697 40.8517C116.986 38.4277 107.417 33.4883 107.242 31.4531C107.224 31.2601 107.285 31.0889 107.428 30.9267C107.892 30.4002 109.222 30.025 110.817 29.9725C112.701 29.8973 113.779 29.4877 114.353 29.157C115.134 28.7039 115.547 28.0614 115.546 27.2994C115.545 26.0797 114.449 24.7178 112.614 23.6558C110.82 22.6209 108.549 22.0039 106.536 22.0039C105.328 22.0039 104.299 22.2286 103.559 22.6527C102.702 23.1664 102.198 23.9104 102.094 24.8047C101.988 25.7272 101.233 26.8037 99.4564 26.8037L99.3187 26.8019C96.3366 26.7185 91.8212 23.7754 85.5725 19.7013L84.3564 18.9012C85.2526 18.3775 86.0944 17.8746 86.8855 17.4034L87.9919 16.7437C92.1774 14.2328 94.942 12.5736 97.3913 12.5736C97.4883 12.5736 97.5852 12.5763 97.6822 12.5818C99.5887 12.6842 100.692 13.893 101.057 14.897C101.483 16.0614 102.365 16.7537 103.03 17.1306C104.071 17.7323 105.496 18.063 107.039 18.063C108.815 18.063 110.596 17.6217 111.926 16.8515C113.295 16.065 114.082 14.9912 114.083 13.9056C114.084 12.9524 113.49 12.0834 112.409 11.4591C111.762 11.0803 110.586 10.5792 108.664 10.3436C106.812 10.1252 104.746 9.44469 104.585 8.46606C104.37 7.1304 108.295 4.95203 112.84 2.42933L113.083 2.29521C114.251 1.65004 115.459 0.983118 116.697 0.266357C118.438 1.40991 120.063 2.54622 121.501 3.55113L122.094 3.96615C126.369 6.97455 129.459 9.14929 132.156 9.22359L132.347 9.22632C134.821 9.22632 135.86 7.77014 135.999 6.52238C136.108 5.65973 136.648 5.18037 137.081 4.93119C137.653 4.60135 138.47 4.42646 139.444 4.42646C141.181 4.42646 143.156 4.97196 144.729 5.88445C146.256 6.76704 147.205 7.89247 147.205 8.82036C147.204 9.32327 146.933 9.73557 146.397 10.0455C145.93 10.3128 145.038 10.6453 143.446 10.7033C142.705 10.7341 140.216 10.9163 139.261 11.9901C138.987 12.2981 138.863 12.6506 138.893 13.0357C139.05 14.7891 143.029 16.7455 149.054 19.7068C150.63 20.4833 152.248 21.2817 153.947 22.1488C152.894 22.765 151.905 23.3613 150.986 23.9149L150.051 24.4776C145.771 27.0783 142.977 28.7773 140.592 28.7773C140.498 28.7773 140.406 28.7746 140.314 28.7691C138.398 28.6667 137.292 27.4579 136.926 26.4539C136.52 25.3077 135.636 24.6072 134.967 24.2221C133.924 23.6204 132.498 23.2888 130.95 23.2888C129.171 23.2888 127.387 23.7301 126.057 24.5003C124.693 25.2868 123.911 26.3606 123.911 27.4453C123.91 28.3985 124.505 29.2675 125.586 29.8918C126.233 30.2697 127.409 30.7717 129.331 31.0073C131.182 31.2248 133.248 31.9053 133.41 32.8839C133.625 34.2196 129.895 36.2811 125.576 38.6679C124.318 39.371 123.035 40.0887 121.697 40.8517Z" fill="#FFD666"/>
<path d="M116.687 0.532818C118.388 1.65281 119.976 2.76374 121.385 3.74872L121.961 4.15105C126.269 7.18301 129.383 9.37407 132.146 9.45018C132.214 9.45199 132.279 9.45291 132.344 9.45291C134.967 9.45291 136.072 7.88799 136.221 6.55415C136.299 5.93253 136.626 5.45228 137.193 5.12606C137.73 4.81616 138.508 4.65215 139.442 4.65215C141.14 4.65215 143.073 5.18587 144.613 6.08024C146.07 6.92204 146.975 7.97226 146.975 8.81951C146.975 9.23633 146.741 9.58248 146.281 9.84798C145.836 10.1035 144.981 10.4198 143.433 10.4768C142.455 10.5167 140.074 10.7297 139.088 11.8397C138.777 12.1904 138.63 12.6108 138.664 13.0594C138.825 14.8526 142.302 16.6423 148.951 19.9107C150.402 20.6257 151.896 21.3624 153.473 22.1643C152.554 22.7062 151.678 23.2335 150.887 23.7102L149.93 24.2865L149.878 24.3182C145.682 26.8681 142.91 28.5526 140.589 28.5526C140.5 28.5526 140.412 28.5499 140.323 28.5454C138.518 28.4484 137.478 27.3185 137.138 26.3824C136.707 25.17 135.78 24.4333 135.078 24.0282C134.001 23.4066 132.534 23.0641 130.949 23.0641C129.13 23.0641 127.305 23.5172 125.942 24.3064C124.506 25.1346 123.682 26.28 123.681 27.448C123.681 28.4865 124.316 29.4243 125.468 30.0903C126.135 30.48 127.341 30.9956 129.303 31.2357C131.432 31.4858 133.064 32.1962 133.184 32.923C133.374 34.1018 129.353 36.3246 125.428 38.493C124.236 39.1581 122.99 39.855 121.689 40.5953C117.304 38.339 107.628 33.3298 107.466 31.4314C107.454 31.3019 107.494 31.1931 107.595 31.0771C108.013 30.6023 109.31 30.2498 110.824 30.1991C112.754 30.123 113.868 29.6971 114.463 29.3537C115.306 28.8643 115.77 28.1358 115.769 27.3003C115.768 25.9801 114.658 24.5801 112.723 23.461C110.897 22.4081 108.583 21.7792 106.533 21.7792C105.286 21.7792 104.217 22.0139 103.436 22.4624C102.52 23.0115 101.977 23.8135 101.867 24.7794C101.767 25.6493 101.08 26.5781 99.4537 26.5781L99.3223 26.5763C96.4045 26.4948 91.6772 23.4139 85.6948 19.5138L84.7823 18.9131C85.558 18.4582 86.2919 18.0196 86.986 17.6055L88.0091 16.9957L88.1006 16.9404C92.2553 14.4476 95 12.8002 97.3877 12.8002C97.481 12.8002 97.5734 12.8029 97.6668 12.8074C99.4628 12.9035 100.498 14.0344 100.84 14.9749C101.29 16.2037 102.217 16.9322 102.911 17.3246C103.987 17.9462 105.452 18.2887 107.035 18.2887C108.849 18.2887 110.672 17.8356 112.035 17.0473C113.477 16.2191 114.305 15.0737 114.306 13.9048C114.308 12.8673 113.673 11.9285 112.52 11.2634C111.854 10.8737 110.648 10.3581 108.685 10.118C106.557 9.86791 104.925 9.1575 104.804 8.43077C104.614 7.25188 108.848 4.90134 112.942 2.62963L112.982 2.60789L113.176 2.50006C114.314 1.873 115.485 1.22602 116.687 0.532818ZM116.702 0C115.349 0.784721 114.034 1.50964 112.765 2.21009C107.934 4.89137 104.119 7.0045 104.36 8.50236C104.553 9.674 106.787 10.35 108.635 10.5675C110.507 10.7967 111.654 11.2797 112.294 11.6548C114.552 12.9588 114.334 15.2051 111.811 16.6549C110.458 17.4388 108.714 17.8366 107.037 17.8366C105.586 17.8366 104.187 17.5384 103.14 16.9331C102.5 16.5707 101.666 15.9065 101.268 14.82C100.882 13.7571 99.7219 12.4649 97.693 12.3562C97.5925 12.3508 97.491 12.348 97.3895 12.348C94.8586 12.348 92.0161 14.0652 87.778 16.6078C86.6182 17.2965 85.3387 18.0685 83.9251 18.8904L85.4465 19.8926C91.727 23.9866 96.2795 26.9451 99.3105 27.0303C99.3595 27.0321 99.4075 27.0321 99.4546 27.0321C101.369 27.0321 102.2 25.8568 102.318 24.832C102.439 23.7818 103.127 23.1774 103.671 22.8512C104.4 22.4325 105.407 22.2323 106.535 22.2323C108.434 22.2323 110.674 22.8004 112.499 23.8534C115.421 25.5442 116.194 27.8268 114.237 28.9622C113.694 29.2757 112.644 29.6744 110.808 29.7469C108.996 29.8076 106.907 30.3142 107.015 31.474C107.184 33.4549 114.636 37.4763 121.7 41.1109C123.077 40.3253 124.394 39.5895 125.649 38.889C130.238 36.3527 133.874 34.3483 133.633 32.8505C133.44 31.6788 131.205 31.0028 129.357 30.7854C127.485 30.5561 126.338 30.0731 125.698 29.6989C123.44 28.3949 123.658 26.1486 126.17 24.6988C127.522 23.9159 129.27 23.5172 130.949 23.5172C132.403 23.5172 133.805 23.8153 134.852 24.4206C135.48 24.7831 136.326 25.4473 136.713 26.5337C137.099 27.5966 138.27 28.8888 140.299 28.9975C140.395 29.003 140.492 29.0057 140.589 29.0057C143.046 29.0057 145.902 27.2641 150.165 24.6743C151.433 23.9132 152.858 23.0442 154.416 22.138C152.58 21.1965 150.841 20.3384 149.15 19.5057C143.402 16.6794 139.26 14.6388 139.115 13.0204C139.006 11.6077 141.385 11.016 143.45 10.9308C145.104 10.8701 146.022 10.5203 146.505 10.2422C148.221 9.25174 147.471 7.21111 144.839 5.68878C143.175 4.72283 141.142 4.19998 139.44 4.19998C138.46 4.19998 137.591 4.37306 136.964 4.73461C136.481 5.0128 135.89 5.5438 135.769 6.49797C135.64 7.66327 134.662 9.00074 132.342 9.00074C132.281 9.00074 132.221 8.99983 132.158 8.99802C129.538 8.92552 126.459 6.76347 122.22 3.78134C120.579 2.63326 118.731 1.32841 116.702 0Z" fill="#E1B12C"/>
<path d="M397.165 121.82C397.165 121.82 387.369 116.634 384.835 114.801C385.385 114.696 385.966 114.632 386.526 114.609C388.18 114.549 389.11 114.199 389.581 113.921C390.205 113.565 390.503 113.069 390.503 112.509C390.505 111.59 390.502 108.238 390.503 107.678C390.505 106.697 389.595 105.518 387.927 104.549C385.294 103.028 381.755 102.593 380.04 103.583C379.558 103.861 378.966 104.393 378.857 105.347C378.712 106.542 377.685 107.919 375.234 107.859C371.623 107.75 366.31 104.332 359.003 99.5981L358.87 99.6824C357.506 100.467 356.261 101.204 355.139 101.881C354.137 102.484 353.23 103.028 352.385 103.511C349.221 105.347 346.963 106.373 344.656 106.252C342.203 106.119 340.815 104.645 340.369 103.414C340.019 102.448 339.282 101.856 338.727 101.542C336.746 100.395 333.292 100.54 331.009 101.856C329.783 102.563 329.146 103.465 329.126 104.326C329.108 105.069 329.147 108.296 329.126 109.157C329.108 109.9 329.549 110.612 330.466 111.143C331.022 111.457 332.037 111.892 333.727 112.085C334.558 112.184 335.453 112.374 336.252 112.648C334.722 113.708 332.561 114.907 330.055 116.299C328.787 117 326.142 118.498 326.142 118.498V123.328C326.142 123.328 339.571 131.866 343.013 131.963C345.03 132.024 345.887 130.828 346.007 129.777C346.128 128.714 346.817 128.111 347.372 127.796C349.329 126.674 353.289 127.12 356.2 128.799C356.544 128.997 356.854 129.206 357.139 129.419C356.537 129.626 355.69 129.803 354.509 129.85C352.737 129.92 350.698 130.396 350.701 131.514C350.701 131.539 350.702 131.563 350.705 131.589C350.777 132.42 350.703 136.394 350.705 136.419C350.874 138.351 356.731 141.527 364.412 145.477C365.777 144.692 367.105 143.956 368.386 143.255C373.066 140.657 376.795 138.593 376.791 137.104C376.791 137.056 376.793 133.073 376.791 132.274C376.791 132.226 376.787 132.179 376.779 132.132C376.586 130.961 374.364 130.285 372.516 130.067C370.75 129.851 369.635 129.41 368.986 129.047C369.102 128.969 369.198 128.886 369.327 128.811C371.851 127.35 375.74 127.229 378.011 128.534C378.639 128.897 379.484 129.561 379.87 130.647C380.256 131.71 381.428 133.002 383.457 133.111C386.077 133.256 388.855 131.601 393.444 128.848C394.568 128.172 397.164 126.65 397.164 126.65L397.165 121.82Z" fill="#E1B12C"/>
<path d="M364.407 140.389C357.119 136.64 351.091 133.392 350.932 131.569C350.926 130.621 352.729 130.149 354.519 130.077C356.434 130.002 357.493 129.59 358.045 129.26C358.824 128.815 359.239 128.176 359.241 127.415C359.244 126.192 358.15 124.83 356.315 123.772C354.522 122.737 352.25 122.12 350.238 122.12C349.03 122.12 348.001 122.345 347.262 122.77C346.661 123.109 345.917 123.758 345.785 124.921C345.673 125.882 344.926 126.908 343.16 126.908L343.022 126.906C339.72 126.814 333.117 122.738 326.578 118.51C327.805 117.807 329.001 117.143 330.165 116.498C335.592 113.485 339.143 111.513 338.854 109.695C338.59 108.149 336.046 107.306 333.755 107.03C332.476 106.884 331.378 106.568 330.578 106.116C329.772 105.649 329.337 105.016 329.353 104.332C329.372 103.521 330.017 102.691 331.122 102.054C332.288 101.38 333.837 100.995 335.368 100.995C336.632 100.995 337.783 101.26 338.612 101.739C339.04 101.981 339.805 102.528 340.155 103.492C340.624 104.784 342.08 106.341 344.643 106.479C344.77 106.485 344.896 106.489 345.023 106.489C347.265 106.489 349.462 105.47 352.497 103.707C353.345 103.224 354.251 102.68 355.255 102.075C356.377 101.399 357.619 100.664 358.983 99.8797L359.002 99.8679C366.002 104.403 371.534 107.974 375.226 108.086L375.388 108.088C377.871 108.088 378.929 106.626 379.081 105.375C379.18 104.508 379.718 104.03 380.153 103.781C380.721 103.453 381.532 103.28 382.5 103.28C384.238 103.28 386.223 103.828 387.812 104.747C389.334 105.63 390.278 106.753 390.276 107.679C390.275 108.18 390.004 108.589 389.468 108.894C389.095 109.114 388.219 109.49 386.517 109.553C385.775 109.584 383.284 109.766 382.336 110.841C382.064 111.149 381.943 111.502 381.977 111.888C382.142 113.929 387.491 117.086 396.693 121.831C395.468 122.54 394.354 123.207 393.328 123.824C389.075 126.376 386.263 128.064 383.778 128.064C383.676 128.064 383.573 128.061 383.47 128.055C381.555 127.953 380.448 126.744 380.085 125.74C379.677 124.595 378.794 123.894 378.125 123.508C377.076 122.907 375.648 122.575 374.103 122.575C372.326 122.575 370.545 123.016 369.215 123.787C367.849 124.57 367.064 125.641 367.063 126.725C367.062 127.68 367.658 128.552 368.743 129.178C369.373 129.554 370.539 130.054 372.488 130.294C374.395 130.517 376.393 131.185 376.555 132.17C376.561 132.207 376.564 132.243 376.565 132.279C376.568 133.625 372.745 135.747 368.32 138.203C367.032 138.908 365.735 139.626 364.407 140.389Z" fill="#FFD666"/>
<path d="M358.995 100.134C366.236 104.826 371.483 108.2 375.222 108.313L375.388 108.314C378.02 108.314 379.143 106.746 379.307 105.398C379.377 104.78 379.7 104.302 380.266 103.977C380.799 103.669 381.571 103.506 382.499 103.506C384.199 103.506 386.142 104.044 387.698 104.943C389.15 105.785 390.051 106.834 390.049 107.679C390.048 108.093 389.815 108.436 389.349 108.701C388.997 108.909 388.16 109.267 386.506 109.327C385.527 109.367 383.145 109.58 382.165 110.692C381.855 111.044 381.712 111.464 381.749 111.905C381.903 113.807 385.574 116.338 396.22 121.843C395.134 122.475 394.137 123.072 393.211 123.629C388.989 126.163 386.2 127.836 383.777 127.836C383.679 127.836 383.581 127.834 383.482 127.828C381.677 127.731 380.638 126.601 380.298 125.665C379.867 124.454 378.939 123.716 378.237 123.311C377.155 122.689 375.687 122.347 374.103 122.347C372.288 122.347 370.465 122.8 369.102 123.588C367.664 124.414 366.839 125.557 366.837 126.724C366.836 127.764 367.472 128.704 368.625 129.37C369.277 129.758 370.472 130.273 372.463 130.518C374.585 130.767 376.212 131.477 376.333 132.209C376.336 132.23 376.338 132.253 376.338 132.276C376.341 133.492 372.207 135.786 368.209 138.005L368.168 138.028C366.692 138.835 365.519 139.49 364.4 140.132C359.105 137.409 351.317 133.38 351.155 131.514C351.153 130.902 352.603 130.381 354.528 130.304C356.49 130.227 357.586 129.799 358.153 129.459C358.998 128.976 359.466 128.251 359.467 127.416C359.47 126.112 358.334 124.677 356.427 123.577C354.601 122.524 352.287 121.895 350.237 121.895C348.99 121.895 347.921 122.129 347.15 122.573C346.235 123.09 345.669 123.916 345.558 124.896C345.458 125.76 344.776 126.683 343.159 126.683L343.026 126.681C339.835 126.591 333.42 122.66 327.013 118.522C328.173 117.861 329.293 117.24 330.275 116.697L330.325 116.669C335.784 113.637 339.392 111.635 339.075 109.655C338.791 107.988 336.153 107.09 333.777 106.805C332.201 106.624 331.227 106.223 330.693 105.921C329.96 105.496 329.565 104.935 329.579 104.337C329.596 103.607 330.201 102.846 331.236 102.249C332.369 101.595 333.875 101.22 335.369 101.22C336.594 101.22 337.705 101.474 338.504 101.936C338.901 102.162 339.618 102.673 339.943 103.568C340.435 104.924 341.958 106.559 344.632 106.704C344.762 106.711 344.892 106.714 345.023 106.714C347.316 106.714 349.542 105.683 352.61 103.903C353.462 103.417 354.365 102.875 355.373 102.268C356.62 101.517 357.802 100.822 358.995 100.134ZM359.003 99.5991L358.869 99.6834C357.505 100.468 356.261 101.205 355.138 101.882C354.136 102.485 353.229 103.029 352.384 103.512C349.387 105.25 347.204 106.263 345.022 106.263C344.899 106.263 344.777 106.259 344.655 106.253C342.203 106.12 340.814 104.647 340.368 103.415C340.018 102.449 339.281 101.857 338.726 101.543C337.827 101.023 336.626 100.768 335.368 100.768C333.853 100.768 332.256 101.138 331.009 101.857C329.783 102.564 329.146 103.466 329.126 104.327C329.108 105.07 329.549 105.783 330.466 106.314C331.022 106.628 332.036 107.062 333.727 107.256C335.84 107.51 338.389 108.319 338.63 109.732C338.895 111.398 335.188 113.451 330.055 116.301C328.787 117.002 327.482 117.727 326.142 118.499C332.688 122.738 339.571 127.038 343.013 127.134C343.062 127.136 343.111 127.137 343.158 127.137C345.071 127.137 345.89 125.973 346.007 124.949C346.128 123.886 346.817 123.282 347.372 122.968C348.102 122.549 349.108 122.349 350.236 122.349C352.135 122.349 354.375 122.917 356.201 123.97C359.111 125.649 359.896 127.943 357.928 129.066C357.384 129.392 356.346 129.778 354.51 129.851C352.737 129.921 350.699 130.397 350.702 131.515C350.702 131.54 350.703 131.564 350.706 131.59C350.874 133.522 356.732 136.698 364.413 140.647C365.778 139.863 367.106 139.126 368.386 138.426C373.066 135.828 376.795 133.763 376.791 132.275C376.791 132.227 376.787 132.18 376.779 132.133C376.586 130.962 374.364 130.286 372.516 130.068C370.644 129.839 369.485 129.356 368.857 128.981C366.599 127.677 366.803 125.431 369.328 123.981C370.681 123.198 372.425 122.799 374.103 122.799C375.556 122.799 376.958 123.097 378.012 123.703C378.64 124.065 379.485 124.729 379.871 125.816C380.257 126.879 381.429 128.171 383.458 128.28C383.564 128.286 383.671 128.289 383.778 128.289C386.307 128.289 389.043 126.658 393.446 124.017C394.57 123.341 395.801 122.604 397.166 121.819C388.036 117.121 382.359 113.812 382.203 111.867C382.083 110.455 384.462 109.863 386.527 109.778C388.181 109.717 389.111 109.367 389.582 109.089C390.206 108.734 390.504 108.237 390.505 107.677C390.506 106.696 389.597 105.517 387.928 104.548C386.251 103.579 384.208 103.051 382.501 103.052C381.528 103.052 380.665 103.223 380.042 103.583C379.559 103.86 378.968 104.392 378.859 105.346C378.717 106.516 377.731 107.86 375.39 107.86C375.339 107.86 375.288 107.859 375.236 107.858C371.622 107.751 366.309 104.333 359.003 99.5991Z" fill="#E1B12C"/>
<path d="M392.794 221.31C392.794 221.31 383.891 216.655 381.444 214.897C382.012 214.786 382.613 214.716 383.194 214.693C384.848 214.632 385.766 214.282 386.249 214.004C386.893 213.633 387.189 213.113 387.17 212.53C387.14 211.623 387.189 208.283 387.17 207.699C387.138 206.727 386.228 205.576 384.583 204.632C381.962 203.11 378.424 202.676 376.709 203.666C376.226 203.944 375.634 204.475 375.513 205.429C375.38 206.625 374.342 208.002 371.902 207.929C368.461 207.832 362.941 204.452 354.947 199.283L322.449 218.038V222.869C322.449 222.869 331.254 227.575 333.61 229.36C333.013 229.482 332.376 229.558 331.76 229.584C330.117 229.656 329.188 229.994 328.705 230.272C328.082 230.631 327.785 231.128 327.783 231.689C327.781 232.61 327.784 235.959 327.783 236.52C327.78 237.505 328.693 238.686 330.371 239.655C333.003 241.177 336.542 241.6 338.245 240.609C338.727 240.331 339.332 239.8 339.44 238.846C339.585 237.651 340.611 236.286 343.051 236.346C346.324 236.443 351.359 239.426 358.34 243.544C359.041 243.966 359.765 244.389 360.514 244.824C362.905 243.459 365.2 242.373 367.24 241.419C370.694 239.789 373.182 238.605 372.989 237.422C372.834 236.419 373.136 233.489 372.989 232.591C372.808 231.419 370.574 230.743 368.725 230.526C366.952 230.308 365.846 229.866 365.189 229.512C365.307 229.432 365.406 229.346 365.538 229.27C368.061 227.808 371.95 227.688 374.22 228.993C374.848 229.367 375.694 230.031 376.08 231.106C376.467 232.181 377.637 233.461 379.666 233.57C381.695 233.69 383.737 232.241 386.562 230.237C388.217 229.065 392.794 226.143 392.794 226.143L392.794 221.31Z" fill="#273C75"/>
<path opacity="0.2" d="M392.794 221.31C392.794 221.31 383.891 216.655 381.444 214.897C382.012 214.786 382.613 214.716 383.194 214.693C384.848 214.632 385.766 214.282 386.249 214.004C386.893 213.633 387.189 213.113 387.17 212.53C387.14 211.623 387.189 208.283 387.17 207.699C387.138 206.727 386.228 205.576 384.583 204.632C381.962 203.11 378.424 202.676 376.709 203.666C376.226 203.944 375.634 204.475 375.513 205.429C375.38 206.625 374.342 208.002 371.902 207.929C368.461 207.832 362.941 204.452 354.947 199.283L322.449 218.038V222.869C322.449 222.869 331.254 227.575 333.61 229.36C333.013 229.482 332.376 229.558 331.76 229.584C330.117 229.656 329.188 229.994 328.705 230.272C328.082 230.631 327.785 231.128 327.783 231.689C327.781 232.61 327.784 235.959 327.783 236.52C327.78 237.505 328.693 238.686 330.371 239.655C333.003 241.177 336.542 241.6 338.245 240.609C338.727 240.331 339.332 239.8 339.44 238.846C339.585 237.651 340.611 236.286 343.051 236.346C346.324 236.443 351.359 239.426 358.34 243.544C359.041 243.966 359.765 244.389 360.514 244.824C362.905 243.459 365.2 242.373 367.24 241.419C370.694 239.789 373.182 238.605 372.989 237.422C372.834 236.419 373.136 233.489 372.989 232.591C372.808 231.419 370.574 230.743 368.725 230.526C366.952 230.308 365.846 229.866 365.189 229.512C365.307 229.432 365.406 229.346 365.538 229.27C368.061 227.808 371.95 227.688 374.22 228.993C374.848 229.367 375.694 230.031 376.08 231.106C376.467 232.181 377.637 233.461 379.666 233.57C381.695 233.69 383.737 232.241 386.562 230.237C388.217 229.065 392.794 226.143 392.794 226.143L392.794 221.31Z" fill="black"/>
<path d="M392.795 221.31C390.27 222.784 388.218 224.233 386.563 225.404C383.738 227.409 381.696 228.858 379.667 228.737C377.638 228.628 376.467 227.348 376.081 226.273C375.694 225.199 374.849 224.534 374.221 224.16C371.951 222.856 368.062 222.977 365.539 224.437C363.014 225.899 362.809 228.145 365.067 229.449C365.707 229.812 366.854 230.295 368.727 230.524C370.574 230.741 372.809 231.417 372.99 232.589C373.183 233.772 370.696 234.956 367.241 236.586C365.201 237.54 362.906 238.627 360.515 239.991C359.767 239.556 359.042 239.134 358.341 238.711C351.361 234.593 346.325 231.61 343.052 231.513C340.612 231.453 339.586 232.817 339.441 234.014C339.332 234.968 338.729 235.499 338.246 235.777C336.543 236.767 333.004 236.344 330.372 234.823C328.694 233.853 327.781 232.672 327.784 231.687C327.785 231.127 328.083 230.629 328.706 230.27C329.189 229.993 330.118 229.654 331.761 229.582C333.838 229.497 336.218 228.906 336.097 227.505C335.916 225.415 330.542 222.216 322.451 218.036L354.949 199.281C362.943 204.45 368.463 207.831 371.904 207.927C374.344 208 375.382 206.623 375.515 205.427C375.636 204.473 376.228 203.942 376.711 203.664C378.425 202.674 381.963 203.109 384.585 204.63C386.23 205.573 387.14 206.725 387.172 207.697C387.191 208.281 386.895 208.8 386.251 209.172C385.768 209.449 384.85 209.8 383.196 209.86C381.131 209.945 378.751 210.536 378.86 211.95C379.039 214.052 384.74 217.157 392.795 221.31Z" fill="#273C75"/>
<path opacity="0.5" d="M392.795 221.31C390.27 222.784 388.218 224.233 386.563 225.404C383.738 227.409 381.696 228.858 379.667 228.737C377.638 228.628 376.467 227.348 376.081 226.273C375.694 225.199 374.849 224.534 374.221 224.16C371.951 222.856 368.062 222.977 365.539 224.437C363.014 225.899 362.809 228.145 365.067 229.449C365.707 229.812 366.854 230.295 368.727 230.524C370.574 230.741 372.809 231.417 372.99 232.589C373.183 233.772 370.696 234.956 367.241 236.586C365.201 237.54 362.906 238.627 360.515 239.991C359.767 239.556 359.042 239.134 358.341 238.711C351.361 234.593 346.325 231.61 343.052 231.513C340.612 231.453 339.586 232.817 339.441 234.014C339.332 234.968 338.729 235.499 338.246 235.777C336.543 236.767 333.004 236.344 330.372 234.823C328.694 233.853 327.781 232.672 327.784 231.687C327.785 231.127 328.083 230.629 328.706 230.27C329.189 229.993 330.118 229.654 331.761 229.582C333.838 229.497 336.218 228.906 336.097 227.505C335.916 225.415 330.542 222.216 322.451 218.036L354.949 199.281C362.943 204.45 368.463 207.831 371.904 207.927C374.344 208 375.382 206.623 375.515 205.427C375.636 204.473 376.228 203.942 376.711 203.664C378.425 202.674 381.963 203.109 384.585 204.63C386.23 205.573 387.14 206.725 387.172 207.697C387.191 208.281 386.895 208.8 386.251 209.172C385.768 209.449 384.85 209.8 383.196 209.86C381.131 209.945 378.751 210.536 378.86 211.95C379.039 214.052 384.74 217.157 392.795 221.31Z" fill="#5679DA"/>
<path d="M71.1812 189.168C71.1812 189.168 62.2774 184.512 59.8308 182.753C60.3989 182.642 60.9997 182.573 61.5806 182.549C63.2352 182.488 64.1531 182.139 64.6361 181.86C65.2794 181.489 65.5757 180.97 65.5567 180.386C65.5268 179.479 65.5757 176.139 65.5567 175.555C65.525 174.583 64.6152 173.432 62.9697 172.489C60.3491 170.968 56.8106 170.533 55.0962 171.523C54.6132 171.801 54.0215 172.332 53.9001 173.286C53.7669 174.482 52.7284 175.859 50.2891 175.786C46.8475 175.69 41.3282 172.309 33.3333 167.139L0.835327 185.895V190.725C0.835327 190.725 9.64034 195.431 11.9963 197.216C11.4001 197.338 10.763 197.414 10.1469 197.44C8.50403 197.512 7.57432 197.85 7.09135 198.128C6.46883 198.487 6.17161 198.985 6.1698 199.546C6.16799 200.466 6.17071 203.815 6.1698 204.376C6.16799 205.361 7.08048 206.542 8.75775 207.512C11.3901 209.033 14.9286 209.456 16.6312 208.466C17.1142 208.188 17.7186 207.657 17.8264 206.702C17.9714 205.507 18.9981 204.142 21.4374 204.202C24.7104 204.299 29.7459 207.281 36.7268 211.4C37.4273 211.822 38.1522 212.245 38.9007 212.68C41.292 211.316 43.5863 210.229 45.627 209.275C49.0812 207.645 51.5686 206.461 51.3755 205.278C51.2206 204.275 51.5223 201.345 51.3755 200.447C51.1943 199.276 48.9607 198.6 47.1121 198.382C45.3388 198.165 44.2324 197.722 43.5755 197.368C43.6942 197.288 43.7929 197.202 43.9243 197.126C46.4479 195.665 50.3371 195.544 52.607 196.848C53.235 197.222 54.0804 197.886 54.4664 198.961C54.8533 200.036 56.0241 201.316 58.0529 201.425C60.0818 201.545 62.1233 200.097 64.9487 198.092C66.6033 196.921 71.1802 193.998 71.1802 193.998V189.168H71.1812Z" fill="#E1B12C"/>
<path d="M38.9015 207.589C38.1938 207.177 37.5078 206.777 36.8436 206.376L36.7077 206.296C29.7675 202.202 24.7538 199.243 21.4446 199.145L21.2833 199.143C18.8077 199.143 17.753 200.598 17.6016 201.844C17.5038 202.703 16.9583 203.185 16.5179 203.438C15.9497 203.768 15.136 203.942 14.1637 203.942C12.4294 203.942 10.4503 203.397 8.87002 202.484C7.34136 201.601 6.39353 200.474 6.39534 199.546C6.39625 199.044 6.66809 198.633 7.20362 198.323C7.57514 198.11 8.45229 197.741 10.1558 197.665C10.8998 197.635 13.4044 197.452 14.3504 196.378C14.6195 196.072 14.7391 195.724 14.7065 195.342C14.5171 193.161 9.44905 190.1 1.30643 185.882L33.326 167.404C41.2756 172.542 46.7559 175.913 50.2817 176.012L50.4702 176.015C52.9449 176.015 53.9851 174.559 54.1238 173.311C54.2334 172.447 54.7735 171.968 55.2066 171.719C55.7748 171.391 56.5849 171.218 57.5517 171.218C59.2897 171.218 61.2715 171.766 62.8536 172.685C64.3732 173.556 65.2975 174.631 65.3274 175.564C65.3446 176.079 65.0655 176.519 64.52 176.834C64.0542 177.101 63.1644 177.434 61.5696 177.492C60.8284 177.523 58.3392 177.705 57.3841 178.779C57.1104 179.087 56.9863 179.438 57.0162 179.824C57.2056 182.024 62.5473 184.965 70.7099 189.179C68.2995 190.609 66.2969 192.027 64.8163 193.076C62.1142 194.993 60.1669 196.374 58.2884 196.374C58.2132 196.374 58.1389 196.372 58.0646 196.368C56.1418 196.265 55.039 195.057 54.6774 194.054C54.3585 193.167 53.6825 192.395 52.7202 191.823C51.669 191.218 50.241 190.887 48.6969 190.887C46.9199 190.887 45.1385 191.329 43.8082 192.099C42.4409 192.891 41.6571 193.967 41.6571 195.053C41.658 196.008 42.2542 196.878 43.337 197.503C43.9994 197.878 45.1865 198.374 47.0821 198.607C48.9352 198.825 50.9976 199.504 51.1489 200.482C51.3166 201.507 48.6344 202.773 45.5272 204.239C43.4394 205.217 41.2067 206.28 38.9015 207.589Z" fill="#FFD666"/>
<path d="M33.3196 167.67C41.2393 172.787 46.7097 176.139 50.2754 176.239C50.3415 176.24 50.4077 176.241 50.472 176.241C53.0962 176.241 54.2008 174.676 54.3494 173.343C54.4283 172.721 54.7554 172.241 55.3217 171.915C55.8545 171.606 56.6266 171.444 57.5536 171.444C59.2535 171.444 61.1926 171.981 62.744 172.881C64.172 173.7 65.0755 174.73 65.1035 175.57C65.118 176.003 64.8843 176.362 64.4103 176.636C63.9663 176.892 63.1118 177.208 61.5623 177.265C60.5846 177.305 58.2042 177.518 57.2183 178.628C56.9066 178.979 56.7598 179.398 56.7942 179.846C56.9908 182.124 62.2229 185.045 70.2477 189.194C67.9869 190.556 66.1003 191.891 64.6813 192.896C62.0199 194.784 60.098 196.148 58.2921 196.148C58.2223 196.148 58.1516 196.146 58.0791 196.141C56.2677 196.044 55.232 194.914 54.894 193.976C54.5578 193.039 53.8474 192.228 52.8334 191.623C51.7515 191.002 50.2836 190.659 48.6996 190.659C46.8846 190.659 45.0614 191.112 43.6977 191.901C42.2578 192.735 41.4332 193.883 41.4341 195.051C41.435 196.09 42.0712 197.03 43.231 197.7C43.9106 198.085 45.1267 198.593 47.0604 198.831C49.1898 199.081 50.8164 199.789 50.9296 200.519C51.0692 201.374 48.2049 202.726 45.4366 204.033C43.3733 204.997 41.1732 206.045 38.9042 207.327C38.2373 206.939 37.5894 206.56 36.9578 206.179L36.8237 206.1C29.8545 201.989 24.82 199.018 21.4491 198.919L21.2833 198.917C18.66 198.917 17.54 200.479 17.3769 201.82C17.3071 202.433 16.98 202.911 16.4037 203.243C15.8709 203.553 15.0971 203.716 14.1646 203.716C12.4683 203.716 10.5319 203.182 8.9842 202.288C7.52531 201.445 6.62007 200.394 6.62279 199.546C6.62369 199.131 6.85748 198.785 7.31689 198.52C7.67029 198.317 8.51119 197.964 10.1649 197.892C11.149 197.852 13.543 197.639 14.5216 196.528C14.8288 196.179 14.9711 195.762 14.933 195.323C14.7618 193.345 11.1789 190.762 1.77854 185.873L33.3196 167.67ZM33.3323 167.139L0.834335 185.895C8.9253 190.073 14.2996 193.273 14.4809 195.363C14.6014 196.764 12.2228 197.355 10.145 197.44C8.50213 197.512 7.57243 197.85 7.08945 198.128C6.46693 198.487 6.16971 198.985 6.1679 199.546C6.16609 200.531 7.07858 201.711 8.75585 202.681C10.4268 203.647 12.4629 204.17 14.1628 204.17C15.1405 204.17 16.0077 203.997 16.6293 203.635C17.1123 203.358 17.7167 202.826 17.8245 201.872C17.9668 200.702 18.9527 199.37 21.2806 199.37C21.3313 199.37 21.383 199.371 21.4355 199.372C24.7085 199.469 29.744 202.451 36.7249 206.569C37.4254 206.991 38.1503 207.415 38.8988 207.85C41.2901 206.485 43.5844 205.398 45.6251 204.444C49.0793 202.814 51.5667 201.631 51.3736 200.447C51.1924 199.276 48.9588 198.6 47.1102 198.382C45.2381 198.153 44.091 197.67 43.4512 197.307C41.1931 196.003 41.3979 193.757 43.9224 192.296C45.2753 191.513 47.0196 191.114 48.6978 191.114C50.1504 191.114 51.5522 191.412 52.606 192.017C53.234 192.392 54.0794 193.056 54.4654 194.131C54.8523 195.205 56.0231 196.486 58.0519 196.594C58.1308 196.599 58.2096 196.602 58.2893 196.602C60.2412 196.602 62.232 195.188 64.9477 193.261C66.6023 192.09 68.6556 190.641 71.1792 189.168C63.1245 185.013 57.424 181.909 57.2427 179.808C57.134 178.395 59.5126 177.804 61.5786 177.718C63.2333 177.658 64.1512 177.308 64.6342 177.03C65.2775 176.658 65.5738 176.139 65.5548 175.555C65.5231 174.583 64.6133 173.432 62.9678 172.488C61.2986 171.519 59.2571 170.99 57.5517 170.991C56.5794 170.991 55.7159 171.163 55.0934 171.522C54.6104 171.8 54.0187 172.331 53.8973 173.286C53.7677 174.451 52.7782 175.788 50.4693 175.788C50.4095 175.788 50.3479 175.787 50.2863 175.786C46.8465 175.69 41.3272 172.309 33.3323 167.139Z" fill="#E1B12C"/>
</svg>
